<?xml version="1.0" standalone="no"?>
<!DOCTYPE svg PUBLIC "-//W3C//DTD SVG 1.1//EN" "http://www.w3.org/Graphics/SVG/1.1/DTD/svg11.dtd" >
<svg xmlns="http://www.w3.org/2000/svg">
<metadata></metadata>
<defs>
<font id="alusineoblique" horiz-adv-x="1039" >
<font-face units-per-em="2048" ascent="1638" descent="-410" />
<missing-glyph horiz-adv-x="622" />
<glyph horiz-adv-x="2048" />
<glyph horiz-adv-x="2048" />
<glyph unicode="&#xd;" horiz-adv-x="622" />
<glyph unicode=" "  horiz-adv-x="622" />
<glyph unicode="&#x09;" horiz-adv-x="622" />
<glyph unicode="&#xa0;" horiz-adv-x="622" />
<glyph unicode="!" horiz-adv-x="581" d="M220 333q59 0 97.5 -37t38.5 -96q0 -77 -64 -138.5t-144 -61.5q-59 0 -96 37t-37 94q0 79 63 140.5t142 61.5zM266 1329h333l-36 -167l-225 -663h-166l58 663z" />
<glyph unicode="&#x22;" horiz-adv-x="788" d="M238 829h-125l64 500h207zM571 829h-126l64 500h208z" />
<glyph unicode="#" horiz-adv-x="1328" d="M1239 748h-333l-69 -333h333l-18 -82h-333l-71 -333h-82l71 333h-251l-69 -333h-84l71 333h-332l18 82h332l70 333h-333l18 81h332l72 333h82l-69 -333h248l69 333h85l-72 -333h333zM753 415l71 333h-248l-72 -333h249z" />
<glyph unicode="$" horiz-adv-x="1088" d="M614 799q177 -87 218 -121q115 -90 115 -222q0 -41 -7 -82q-46 -220 -277 -320q-95 -41 -218 -54l-35 -166h-85l36 166h-248q-102 5 -103 92q0 13 3 31l28 125h374l59 284q-179 92 -218 121q-115 90 -115 223q0 36 7 79q46 218 277 320q95 41 220 56l33 164h85l-36 -164 h166q102 -5 103 -92q0 -15 -5 -31l-26 -125h-289zM540 840l49 235q-87 -31 -108 -120q-13 -64 59 -115zM499 256q87 26 108 118q13 64 -59 115z" />
<glyph unicode="%" horiz-adv-x="1994" d="M1500 686q315 -18 315 -243q0 -33 -8 -69l-12 -62q-41 -195 -246 -274q-84 -31 -195 -38q-315 18 -315 241q0 33 8 71l13 62q41 195 246 271q84 33 194 41zM1546 312l13 62q3 18 3 33q0 84 -100 92q-38 -3 -67 -15q-69 -33 -84 -110l-16 -62q-3 -18 -2 -33q0 -84 102 -92 q36 3 64 15q69 31 87 110zM1554 1329l72 -64l-1170 -1273l-87 72l1049 1139h-499q33 -64 33 -135q0 -26 -5 -52l-13 -61q-41 -195 -243 -271q-87 -33 -197 -41q-315 18 -315 243q0 33 8 69l13 61q41 195 245 274q84 33 195 39h914zM686 955l13 61q3 18 2 34q0 87 -99 92 q-38 -3 -67 -16q-69 -31 -84 -110l-16 -61q-3 -18 -2 -33q0 -84 102 -93q36 3 64 18q69 31 87 108z" />
<glyph unicode="&#x26;" horiz-adv-x="1679" d="M932 791h747l-15 -84q-26 -115 -154 -126l-240 23q20 -79 -3 -189q-33 -120 -95 -208q-148 -207 -409 -207h-289q-123 8 -213 41q-210 79 -210 282q0 44 10 92q38 177 221 315q-69 69 -70 169q0 28 6 53q49 236 299 331q102 38 238 48h208q102 -8 102 -92q0 -15 -3 -33 l-28 -126h-289q-156 0 -202 -166q-5 -23 -5 -44q0 -113 135 -122h41l-36 -167h-82q-49 -3 -87 -20q-92 -41 -115 -146q-5 -23 -5 -41q0 -115 136 -126h292q154 0 202 167q3 18 2 36q0 131 -133 130h-125l18 85q36 125 151 125z" />
<glyph unicode="'" horiz-adv-x="455" d="M238 829h-125l64 500h207z" />
<glyph unicode="(" horiz-adv-x="581" d="M599 1247q-156 0 -228 -292l-159 -748q-13 -56 -12 -112q0 -177 115 -177l-18 -84q-264 20 -264 266q0 51 13 107l159 748q49 233 235 328q77 38 174 46z" />
<glyph unicode=")" horiz-adv-x="468" d="M266 1247l18 82q264 -18 264 -267q0 -49 -13 -107l-159 -748q-49 -233 -235 -327q-77 -38 -174 -46l15 84q156 0 230 289l159 748q10 56 10 113q0 179 -115 179z" />
<glyph unicode="*" horiz-adv-x="821" d="M709 1137l-49 -67l-204 -36l100 -143l-29 -74l-71 12l-62 172l-135 -172l-77 -12l5 74l161 143l-189 36l-23 67l74 35l174 -81l20 199l64 51l41 -51l-66 -199l210 81z" />
<glyph unicode="+" horiz-adv-x="913" d="M801 581l-25 -125h-269l-59 -269h-123l56 269h-271l28 125h269l59 271h123l-57 -271h269z" />
<glyph unicode="," horiz-adv-x="581" d="M220 333h289l-312 -499h-84z" />
<glyph unicode="-" horiz-adv-x="913" d="M110 456l28 125h663l-25 -125h-666z" />
<glyph unicode="." horiz-adv-x="581" d="M325 333q61 0 98.5 -37t37.5 -96q0 -77 -64 -138.5t-141 -61.5q-59 0 -97.5 37t-38.5 94q0 79 64 140.5t141 61.5z" />
<glyph unicode="/" horiz-adv-x="568" d="M586 1329l77 -23l-681 -1370l-77 23z" />
<glyph unicode="0" horiz-adv-x="1246" d="M763 1329q123 -8 212 -41q210 -79 210 -282q0 -44 -10 -92l-107 -499q-54 -259 -326 -364q-113 -44 -261 -51q-123 8 -210 41q-210 79 -210 282q0 44 11 92l105 499q56 259 327 363q113 44 259 52zM737 415l105 499q5 23 5 43q0 113 -135 123q-49 -5 -87 -20 q-92 -44 -116 -146l-105 -499q-5 -23 -5 -44q0 -113 136 -123q49 5 87 21q92 44 115 146zM640 748q36 0 55 -24.5t12 -57.5q-8 -36 -37.5 -60.5t-65.5 -24.5q-33 0 -52.5 24.5t-11.5 60.5q8 33 37.5 57.5t62.5 24.5z" />
<glyph unicode="1" horiz-adv-x="762" d="M415 41h166l-8 -41h-665l10 41h166l264 1247h-125l10 41h456z" />
<glyph unicode="2" horiz-adv-x="1287" d="M1175 914q-41 -187 -276 -392q-174 -148 -405 -274h581l-28 -123q-33 -125 -151 -125h-870l51 248q712 417 765 666q3 15 3 36q0 131 -133 130q-49 -5 -87 -20q-92 -44 -116 -146l-35 -166h-167q-133 0 -133 130q0 20 3 36q56 259 327 363q113 44 259 52q123 -8 212 -41 q210 -79 210 -282q0 -43 -10 -92z" />
<glyph unicode="3" horiz-adv-x="1246" d="M806 748q271 -18 272 -246q0 -41 -10 -87q-54 -259 -326 -364q-113 -44 -261 -51h-373q-102 8 -103 92q0 15 5 33l26 123h499q154 0 202 167q3 18 3 36q0 131 -136 130h-289l25 126l454 373h-582l26 123q36 125 151 126h832l-54 -249l-435 -332h74z" />
<glyph unicode="4" horiz-adv-x="1216" d="M963 581h125l-54 -248h-125l-69 -333h-333l69 333h-622l54 248l780 748h333zM297 581h333l84 399z" />
<glyph unicode="5" horiz-adv-x="1203" d="M266 1329h748q102 -5 102 -93q0 -15 -5 -33l-26 -123h-581l-53 -251h166q123 -5 210 -38q210 -82 210 -282q0 -46 -10 -94q-54 -259 -326 -364q-115 -44 -261 -51h-332q-102 8 -103 92q0 15 5 33l26 123h458q154 0 200 167q5 18 5 36q0 131 -136 130h-374l-64 85z" />
<glyph unicode="6" horiz-adv-x="1246" d="M658 829q182 0 299.5 -97t117.5 -243q0 -207 -197 -353q-182 -136 -397 -136q-182 0 -299.5 97.5t-117.5 245.5q0 36 8 72l105 499q56 259 327 363q113 44 259 52h333q102 -5 102 -93q0 -15 -2 -33l-29 -123h-455q-154 0 -203 -166l-17 -85h166zM535 248q79 0 142 61.5 t63 141.5q0 56 -37 93t-99 37h-164l-36 -166q-5 -18 -5 -34q0 -59 38.5 -96t97.5 -37z" />
<glyph unicode="7" horiz-adv-x="1134" d="M192 1329h996l-54 -249l-602 -1080h-373l642 1080h-414l-52 -251h-125q-102 8 -102 93q0 15 5 33z" />
<glyph unicode="8" horiz-adv-x="1246" d="M924 686q151 -82 151 -212q0 -28 -7 -59q-36 -172 -207.5 -293.5t-379.5 -121.5q-182 0 -299.5 97.5t-117.5 245.5q0 36 8 72q38 177 284 266q-136 84 -136 212q0 28 8 62q49 233 297 328q105 38 238 46q115 -5 194 -36q195 -74 195 -256q0 -38 -10 -82 q-41 -185 -218 -269zM520 955q-20 -95 164 -169q169 74 168 194q0 92 -140 100q-49 -3 -87 -15q-90 -33 -105 -110zM535 248q49 5 87 21q92 44 115 146q18 87 -161 164q-148 -54 -172 -164q-5 -23 -5 -44q0 -113 136 -123z" />
<glyph unicode="9" horiz-adv-x="1246" d="M763 1329q184 0 302 -97.5t118 -245.5q0 -36 -8 -72l-107 -499q-54 -259 -326 -364q-113 -44 -261 -51h-333q-100 8 -99 92q0 15 2 33l26 123h458q154 0 202 167l16 84h-164q-184 0 -302 97.5t-118 243.5q0 207 200 353q182 136 394 136zM640 748h166l36 166q3 18 3 33 q0 59 -37 96t-96 37q-79 0 -142 -61.5t-63 -140.5q0 -56 37 -93t96 -37z" />
<glyph unicode=":" horiz-adv-x="581" d="M256 333q59 0 96 -37t37 -96q0 -77 -62.5 -138.5t-142.5 -61.5q-59 0 -96 37t-37 94q0 79 63 140.5t142 61.5zM397 996q59 0 96 -37t37 -94q0 -79 -63 -139t-142 -60q-59 0 -96 37t-37 93q0 77 63 138.5t142 61.5z" />
<glyph unicode=";" horiz-adv-x="581" d="M415 996q59 0 96 -37t37 -94q0 -79 -63 -139t-142 -60q-59 0 -96 37t-37 93q0 77 63 138.5t142 61.5zM148 333h292l-315 -499h-81z" />
<glyph unicode="&#x3c;" horiz-adv-x="901" d="M863 906l-551 -407l377 -404l-103 -95l-461 499l674 502z" />
<glyph unicode="=" horiz-adv-x="913" d="M164 707h665l-28 -126h-663zM84 333l26 123h666l-26 -123h-666z" />
<glyph unicode="&#x3e;" horiz-adv-x="901" d="M210 906l102 95l464 -502l-676 -499l-62 95l548 404z" />
<glyph unicode="?" horiz-adv-x="1121" d="M640 1329q123 -8 210 -41q210 -79 210 -282q0 -44 -10 -92q-56 -261 -328 -364q-113 -44 -259 -51h-207l26 123q26 118 151 126h84q154 0 200 166q3 15 2 36q0 131 -133 130h-374l26 123q26 118 151 126h251zM387 333q59 0 96 -37t37 -96q0 -77 -63 -138.5t-142 -61.5 q-59 0 -96 37t-37 94q0 79 63 140.5t142 61.5z" />
<glyph unicode="@" horiz-adv-x="1287" d="M1211 499h41l-54 -251q-41 -192 -251 -207h-788q-169 0 -169 164q0 23 5 43l166 791q36 123 151 123h459q305 -20 304 -276q0 -44 -10 -98l-97 -455q-8 -38 33 -41q13 0 20 5q23 10 29 36l158 747q5 23 5 44q0 113 -135 123h-789q-154 0 -202 -167l-123 -581h-41l123 581 q41 192 254 208h788q166 0 166 -164q0 -23 -2 -44l-169 -788q-23 -118 -151 -126h-167q-136 8 -135 123q0 20 5 44l28 123q-59 -269 -312 -290q-195 0 -195 215q0 41 8 75q79 292 310 292h250l18 81q15 79 -66 85h-499l-141 -666q-5 -23 -5 -43q0 -113 135 -123h789 q156 0 202 166zM671 499l18 82h-85q-33 0 -62.5 -24.5t-37.5 -57.5q-8 -36 11.5 -60t55.5 -24q33 0 62.5 24t37.5 60z" />
<glyph unicode="A" horiz-adv-x="1308" d="M1129 248h41l-26 -123q-26 -118 -151 -125h-166q-136 8 -136 123q0 20 5 43l44 208h-333l-79 -374h-333l194 914q56 259 328 363q113 44 259 52q123 -8 210 -41q212 -79 212 -282q0 -44 -10 -92l-161 -748q-8 -38 33 -41q13 0 23 6q23 10 28 35zM794 622l61 292 q5 23 5 43q0 113 -136 123q-51 -5 -89 -20q-90 -44 -113 -146l-61 -292h333z" />
<glyph unicode="B" horiz-adv-x="1233" d="M292 1329h499q113 -8 192 -39q195 -74 195 -256q0 -41 -11 -84q-28 -128 -161 -223q97 -102 97 -241q0 -36 -7 -71q-56 -261 -328 -364q-113 -44 -261 -51h-499zM571 1080l-177 -832h167q49 3 87 21q92 41 115 146q3 23 2 43q0 113 -135 123h-82l36 167h41q49 3 87 20 q92 41 115 146q3 15 2 33q0 133 -133 133h-125z" />
<glyph unicode="C" horiz-adv-x="1246" d="M937 581q136 0 136 -130q0 -18 -5 -36q-54 -259 -326 -364q-113 -44 -261 -51q-123 8 -210 41q-210 79 -210 282q0 44 11 92l105 499q56 259 327 363q113 44 259 52q123 -8 212 -41q210 -79 210 -282q0 -44 -10 -92q-49 -166 -202 -166h-167l36 166q5 23 5 43 q0 113 -135 123q-49 -5 -87 -20q-92 -44 -116 -146l-105 -499q-5 -23 -5 -44q0 -113 136 -123q154 0 202 167l34 166h166z" />
<glyph unicode="D" horiz-adv-x="1269" d="M1093 415q-56 -259 -325 -364q-115 -44 -261 -51h-499l284 1329h496q123 -8 210 -41q210 -79 210 -282q0 -44 -10 -92zM760 415l108 499q5 23 5 43q0 113 -136 123h-166l-177 -832h167q49 5 87 21q92 44 112 146z" />
<glyph unicode="E" horiz-adv-x="1095" d="M394 248h540l-28 -123q-36 -125 -151 -125h-747l284 1329h704q102 -5 102 -93q0 -15 -2 -33l-28 -123h-497l-54 -251h292q100 -5 100 -92q0 -13 -3 -30l-28 -126h-415z" />
<glyph unicode="F" horiz-adv-x="1026" d="M1027 1080h-456l-54 -251h333q100 -5 100 -92q0 -13 -3 -30l-25 -126h-459l-123 -581h-332l284 1329h663q102 -5 102 -93q0 -15 -5 -33z" />
<glyph unicode="G" horiz-adv-x="1259" d="M1172 914l-192 -914q-46 -207 -250 -292q-84 -33 -195 -41h-499q-115 0 -97 126l25 125q26 115 151 123h126l-8 -41h-85q-41 0 -51 -41q-5 -41 34 -41h414q26 0 46 10q44 20 57 72l97 456q-46 -207 -228 -290q-77 -36 -177 -41q-271 15 -271 244q0 41 10 87l98 458 q56 259 327 363q113 44 259 52q123 -8 210 -41q210 -79 210 -282q-1 -43 -11 -92zM763 540l79 374q5 23 5 43q0 113 -135 123q-51 -5 -90 -20q-92 -44 -113 -146l-79 -374q-5 -23 -5 -43q0 -115 136 -123q49 3 87 20q92 41 115 146z" />
<glyph unicode="H" horiz-adv-x="1320" d="M1142 248h41l-26 -123q-26 -118 -151 -125h-166q-136 8 -136 123q0 20 5 43l79 374h-332l-116 -540h-332l284 1329h330l-113 -541h331l115 541h333l-249 -1163q-8 -38 34 -41q13 0 23 6q23 10 28 35z" />
<glyph unicode="I" horiz-adv-x="655" d="M476 248h41l-25 -123q-26 -118 -152 -125h-166q-136 8 -136 123q0 20 6 43l248 1163h330l-246 -1163q-8 -38 34 -41q10 0 20 6q23 10 28 35z" />
<glyph unicode="J" horiz-adv-x="1221" d="M435 1329h791l-194 -914q-56 -259 -328 -364q-113 -44 -259 -51q-123 8 -212 41q-210 79 -210 282q0 44 10 92q49 166 203 166h166l-36 -166q-3 -15 -2 -36q0 -131 133 -131q49 5 87 21q92 44 115 146l141 665h-581l25 123q36 126 151 126z" />
<glyph unicode="K" horiz-adv-x="1295" d="M1142 248h41l-26 -123q-26 -118 -151 -125h-166q-136 8 -136 123q0 20 5 43l44 208q3 15 2 36q0 131 -133 130h-166l-116 -540h-332l284 1329h330l-123 -581l456 581h333l-494 -589q315 -54 314 -243q0 -38 -15 -82l-54 -249q-8 -38 34 -41q13 0 23 6q23 10 28 35z" />
<glyph unicode="L" horiz-adv-x="980" d="M394 248h497l-26 -123q-36 -125 -151 -125h-706l284 1329h330z" />
<glyph unicode="M" horiz-adv-x="1984" d="M1805 248h41l-26 -123q-26 -118 -151 -125h-166q-136 8 -136 123q0 20 5 43l159 748q5 23 5 43q0 113 -136 123q-49 -5 -87 -20q-92 -44 -115 -146l-192 -914h-333l195 914q5 23 5 43q0 113 -136 123q-51 -5 -89 -20q-92 -44 -113 -146l-195 -914h-332l284 1329h330 l-69 -333q44 207 228 292q77 33 174 41q271 -18 271 -246q0 -41 -10 -87q46 207 228 292q77 33 176 41q271 -18 272 -246q0 -41 -10 -87l-177 -830q-8 -38 33 -41q10 0 21 6q23 10 28 35z" />
<glyph unicode="N" horiz-adv-x="1320" d="M1142 248h41l-26 -123q-36 -125 -151 -125h-210q-100 8 -100 92q0 15 3 33l169 789q5 23 5 43q0 113 -136 123q-51 -5 -89 -20q-92 -44 -113 -146l-195 -914h-332l284 1329h330l-69 -333q44 207 228 292q77 33 174 41q271 -18 271 -246q0 -41 -10 -87l-177 -830 q-8 -38 34 -41q13 0 23 6q23 10 28 35z" />
<glyph unicode="O" horiz-adv-x="1246" d="M1175 914l-107 -499q-54 -259 -326 -364q-113 -44 -261 -51q-123 8 -210 41q-210 79 -210 282q0 44 11 92l105 499q56 259 327 363q113 44 259 52q123 -8 212 -41q210 -79 210 -282q0 -43 -10 -92zM535 248q49 5 87 21q92 44 115 146l105 499q5 23 5 43q0 113 -135 123 q-49 -5 -87 -20q-92 -44 -116 -146l-105 -499q-5 -23 -5 -44q0 -113 136 -123z" />
<glyph unicode="P" horiz-adv-x="1233" d="M788 1329q123 -8 210 -41q210 -79 210 -282q0 -44 -10 -92l-18 -85q-54 -259 -325 -363q-113 -41 -261 -51h-166l-88 -415h-332l284 1329h496zM850 829l18 85q5 23 5 43q0 113 -136 123h-166l-90 -414h167q49 3 87 20q92 41 115 143z" />
<glyph unicode="Q" horiz-adv-x="1246" d="M763 1329q123 -8 212 -41q210 -79 210 -282q0 -44 -10 -92l-107 -499q-61 -294 -415 -397l-41 -184q-8 -38 33 -41q13 0 23 5q23 10 28 36l18 84h41l-28 -125q-23 -115 -151 -126h-164q-136 10 -136 123q0 20 3 44l41 184q-259 84 -259 312q0 41 11 85l105 499 q56 259 327 363q113 44 259 52zM737 415l105 499q5 23 5 43q0 113 -135 123q-49 -5 -87 -20q-92 -44 -116 -146l-105 -499q-5 -23 -5 -44q0 -113 136 -123q49 5 87 21q92 44 115 146z" />
<glyph unicode="R" horiz-adv-x="1295" d="M978 248h125l-25 -123q-36 -125 -151 -125h-208l-227 499h-41l-105 -499h-333l281 1329h500q123 -8 210 -41q210 -79 209 -282q0 -44 -10 -92q-61 -284 -399 -394zM504 748h167q49 3 87 20q92 41 112 146q5 23 6 43q0 113 -136 123h-167z" />
<glyph unicode="S" horiz-adv-x="1044" d="M896 374q-51 -233 -297 -328q-105 -38 -238 -46h-248q-102 8 -103 92q0 15 3 33l28 123h371q115 0 151 126q3 13 3 23q0 67 -110 130q-184 105 -205 121q-113 90 -113 222q0 38 10 82q49 233 297 331q105 38 239 48h207q102 -8 102 -92q0 -15 -2 -33l-28 -126h-331 q-115 0 -151 -128q-18 -74 89.5 -136.5t215.5 -124.5q120 -92 120 -230q0 -41 -10 -87z" />
<glyph unicode="T" horiz-adv-x="1021" d="M1111 1203l-26 -123h-332l-231 -1080h-330l228 1080h-208q-102 5 -102 92q0 15 5 31l26 126h873q102 -5 102 -93q0 -15 -5 -33z" />
<glyph unicode="U" horiz-adv-x="1308" d="M1129 248h41l-26 -123q-26 -118 -151 -125h-166q-136 8 -136 123q0 20 5 43l34 167q-44 -207 -228 -292q-74 -33 -174 -41q-271 18 -272 246q0 41 11 87l212 996h330l-192 -914q-5 -23 -5 -44q0 -113 136 -123q49 5 87 21q92 44 113 146l194 914h333l-248 -1163 q-8 -38 33 -41q13 0 23 6q23 10 28 35z" />
<glyph unicode="V" horiz-adv-x="1262" d="M1137 1329h217l-655 -1329h-417l-90 1329h215q38 -3 64 -16q64 -31 67 -110l23 -870l391 870q54 118 185 126z" />
<glyph unicode="W" horiz-adv-x="2009" d="M1884 1329h218l-658 -1329h-374l-49 748l-366 -748h-373l-90 1329h215q38 -3 64 -16q64 -31 67 -110l23 -870l391 868l-12 128h414l-69 -128l23 -868l392 870q53 118 184 126z" />
<glyph unicode="X" horiz-adv-x="1308" d="M1062 333l-35 -167q-8 -38 33 -41q13 0 23 6q23 10 28 35l18 82h41l-26 -123q-36 -125 -151 -125h-207q-102 8 -102 92q0 15 2 33l54 249q5 23 5 43q0 113 -136 123q-49 -3 -87 -20q-92 -41 -115 -146l-79 -374h-333l72 333q41 195 250 333q-118 102 -117 256q0 36 7 74 l72 333h330l-79 -374q-3 -23 -3 -44q0 -113 136 -123q49 5 87 21q92 44 113 146l79 374h333l-72 -333q-41 -195 -251 -330q118 -105 118 -259q0 -36 -8 -74z" />
<glyph unicode="Y" horiz-adv-x="1295" d="M942 1329h333l-282 -1329q-46 -207 -248 -292q-87 -33 -197 -41h-499q-115 0 -98 126l26 125q26 115 151 123h125l-7 -41h-85q-41 0 -48 -41q-8 -41 30 -41h418q23 0 43 10q46 20 56 72l98 456q-44 -207 -228 -290q-77 -36 -177 -41q-271 15 -271 244q0 41 10 87l187 873 h330l-166 -789q-5 -23 -5 -43q0 -115 135 -123q49 3 87 20q92 41 116 146z" />
<glyph unicode="Z" horiz-adv-x="1162" d="M369 248h581l-26 -123q-26 -118 -151 -125h-791l54 248l366 451l-192 82l23 38l200 -84l279 345h-500l26 123q26 118 151 126h748l-52 -249l-391 -453l215 -89l-23 -39l-223 92z" />
<glyph unicode="[" horiz-adv-x="581" d="M599 1247h-166l-285 -1329h167l-18 -84h-330l317 1495h330z" />
<glyph unicode="\" horiz-adv-x="568" d="M279 1329l97 -1370l-84 -23l-100 1370z" />
<glyph unicode="]" horiz-adv-x="581" d="M266 1247l18 82h330l-317 -1495h-330l15 84h166l285 1329h-167z" />
<glyph unicode="^" horiz-adv-x="949" d="M607 745l171 -458h-143l-128 373l-287 -373h-143l363 458h167z" />
<glyph unicode="_" horiz-adv-x="1047" d="M983 0h-996l26 125h996z" />
<glyph unicode="`" horiz-adv-x="954" d="M532 1413l-28 -333h-82l-97 333h207z" />
<glyph unicode="a" d="M550 748h-496l-54 -249h-41l79 374q36 123 151 123h456q307 -18 307 -277q0 -44 -12 -97l-98 -456q-8 -38 34 -41q13 0 23 6q23 10 28 35l69 333h43l-82 -374q-23 -118 -151 -125h-163q-136 8 -136 123q0 20 5 43l26 123q-59 -269 -313 -289q-192 0 -192 215q0 41 5 77 q79 289 313 289h248l18 85q15 77 -67 82zM545 333l18 82h-82q-36 0 -65 -24.5t-37 -57.5q-5 -36 14 -60.5t52 -24.5t62.5 24.5t37.5 60.5z" />
<glyph unicode="b" d="M996 499h43l-71 -333q-15 -77 -100 -84q-79 0 -67 84l13 64q-148 -230 -422 -230q-97 5 -169 38q-169 77 -169 269q0 51 13 108l176 832q8 38 -33 41q-13 0 -23 -5q-23 -10 -28 -36l-159 -748h-41l166 789q36 125 151 125h167q136 -10 136 -123q0 -20 -6 -43l-115 -540 q59 269 313 289q197 -13 197 -205q0 -38 -11 -84l-115 -541q-8 -38 34 -41q13 0 23 6q23 10 28 35zM545 333l72 333q15 77 -67 82q-23 -3 -43 -11q-46 -20 -56 -71l-72 -333q-15 -77 66 -85q26 3 44 11q46 20 56 74z" />
<glyph unicode="c" horiz-adv-x="954" d="M707 499h-126l36 167q15 77 -67 82q-23 -3 -43 -11q-46 -20 -56 -71l-72 -333q-15 -77 66 -85h415l54 251h41l-79 -374q-36 -125 -152 -125h-373q-305 20 -305 276q0 46 10 98l98 455q8 38 -34 44q-13 -3 -20 -5q-23 -10 -28 -39l-72 -330h-41l69 330q18 79 103 85 q77 0 64 -85l-6 -30q133 197 374 197q317 -15 318 -228q0 -31 -5 -61l-18 -85q-26 -115 -151 -123z" />
<glyph unicode="d" d="M1073 1247l-231 -1081q-8 -38 34 -41q13 0 23 6q23 10 28 35l69 333h43l-82 -374q-33 -125 -151 -125h-163q-136 8 -136 123q0 20 5 43l26 126q-59 -271 -313 -292q-192 0 -192 215q0 41 5 77l116 537q8 38 -34 44q-13 -3 -20 -5q-23 -10 -28 -39l-72 -330h-41l69 330 q18 79 103 85q54 0 66 -51q95 133 241 133q197 -13 197 -205q0 -38 -10 -84l151 706h166q136 -10 136 -123q0 -20 -5 -43zM545 333l72 333q15 77 -67 82q-23 -3 -43 -11q-46 -20 -56 -71l-72 -333q-5 -36 14 -60.5t52 -24.5t62.5 24.5t37.5 60.5z" />
<glyph unicode="e" horiz-adv-x="954" d="M445 248h415l54 251h41l-79 -374q-36 -125 -152 -125h-373q-305 20 -305 276q0 46 10 98l98 455q8 38 -34 44q-13 -3 -20 -5q-23 -10 -28 -39l-72 -330h-41l69 330q18 79 103 85q77 0 64 -85l-6 -30q133 197 374 197q305 -18 305 -277q0 -44 -10 -97l-44 -207h-417 l-18 -82q-11 -85 66 -85zM451 666l-18 -85h166l18 85q15 77 -67 82q-23 -3 -43 -11q-46 -20 -56 -71z" />
<glyph unicode="f" horiz-adv-x="665" d="M136 748h-82l-54 -249h-41l87 415h126l25 125q51 233 256 325q87 38 197 49h85q115 0 97 -125l-26 -126h-166q-26 0 -44 -10q-46 -20 -58 -72l-34 -166h123l-105 -499q-8 -38 34 -41q13 0 20 5q23 10 28 36l18 84h44l-18 -84q-18 -77 -103 -82q-77 0 -64 82l69 333h-82 l-212 -996q-33 -156 -202 -167h-164z" />
<glyph unicode="g" d="M461 -82h-249q-44 0 -51 -43q-5 -41 34 -41h166q23 3 43 10q47 20 57 74zM998 499h44l-108 -499q-15 -77 -99 -82h-41q-46 -210 -251 -292q-84 -36 -195 -41h-248q-115 0 -100 123l28 126q23 115 151 125h289l72 333q-59 -271 -312 -292q-197 15 -197 205q0 38 10 87 l115 537q8 38 -33 44q-13 -3 -21 -5q-23 -10 -28 -39l-71 -330h-41l69 330q18 79 102 85q77 0 64 -85l-13 -64q148 230 423 231q100 -5 169 -39q172 -77 171 -268q0 -49 -13 -108l-133 -622h41q13 0 23 5q23 10 28 36zM548 333l72 333q15 77 -67 82q-23 -3 -44 -11 q-46 -20 -56 -71l-72 -333q-15 -77 67 -85q26 3 44 11q46 20 56 74z" />
<glyph unicode="h" d="M276 1413h167q136 -10 136 -123q0 -20 -6 -43l-115 -540q59 269 313 289q197 -13 197 -205q0 -38 -11 -84l-115 -541q-8 -38 34 -41q13 0 23 6q23 10 28 35l69 333h43l-82 -374q-23 -118 -151 -125h-163q-136 8 -136 123q0 20 5 43l105 500q15 77 -67 82q-23 -3 -43 -11 q-46 -20 -56 -71l-141 -666h-333l266 1247q8 38 -33 41q-13 0 -23 -5q-23 -10 -28 -36l-159 -748h-41l166 789q26 115 151 125z" />
<glyph unicode="i" horiz-adv-x="540" d="M499 499h41l-79 -374q-26 -118 -151 -125h-167q-136 8 -135 123q0 20 5 43l141 663q8 38 -34 44q-13 -3 -20 -5q-23 -10 -28 -39l-72 -330h-41l79 374q23 115 151 123h167q136 -8 136 -123q0 -20 -6 -44l-140 -663q-10 -38 30 -41q13 0 23 6q23 10 29 35zM374 1080 q-61 0 -98.5 37.5t-37.5 93.5q0 79 63 140.5t142 61.5q59 0 97.5 -38.5t38.5 -94.5q0 -77 -64 -138.5t-141 -61.5z" />
<glyph unicode="j" horiz-adv-x="540" d="M499 499h41l-107 -499q-15 -77 -100 -82h-41q-44 -210 -248 -292q-84 -36 -198 -41h-82q-115 0 -97 123l26 126q26 115 151 125h125l185 870q8 38 -34 44q-13 -3 -20 -5q-23 -10 -28 -39l-72 -330h-41l79 374q36 123 151 123h167q136 -8 136 -123q0 -20 -6 -44l-186 -870 h43q10 0 21 5q23 10 28 36zM-141 -166q23 3 44 10q46 20 56 74h-82q-41 0 -51 -43q-5 -41 33 -41zM374 1080q-61 0 -98.5 37.5t-37.5 93.5q0 79 63 140.5t142 61.5q59 0 97.5 -38.5t38.5 -94.5q0 -77 -64 -138.5t-141 -61.5z" />
<glyph unicode="k" d="M996 499h43l-82 -374q-23 -118 -151 -125h-163q-136 8 -136 123q0 20 5 43l51 249q18 77 -64 84h-84l-105 -499h-333l266 1247q8 38 -33 41q-13 0 -23 -5q-23 -10 -28 -36l-159 -748h-41l166 789q26 115 151 125h167q136 -10 136 -123q0 -20 -6 -43l-140 -666q84 0 99 85 l29 122q41 195 251 208h166l-26 -123q-8 -36 -37 -60.5t-65 -24.5q-33 0 -52.5 24.5t-11.5 60.5q-84 0 -102 -85l-8 -40q238 -15 238 -216q0 -36 -10 -76l-62 -290q-8 -38 34 -41q13 0 23 6q23 10 28 35z" />
<glyph unicode="l" horiz-adv-x="540" d="M499 499h41l-79 -374q-26 -118 -151 -125h-167q-136 8 -135 123q0 20 5 43l230 1081q8 38 -33 41q-13 0 -23 -5q-23 -10 -28 -36l-159 -748h-41l166 789q26 115 151 125h167q136 -10 136 -123q0 -20 -6 -43l-227 -1081q-10 -38 30 -41q13 0 23 6q23 10 29 35z" />
<glyph unicode="m" horiz-adv-x="1536" d="M1495 499h41l-79 -374q-23 -118 -151 -125h-167q-136 8 -135 123q0 20 5 43l107 500q15 77 -66 82q-26 -3 -44 -11q-46 -20 -56 -71l-144 -666h-163q-136 8 -136 123q0 20 5 43l105 500q15 77 -67 82q-23 -3 -43 -11q-46 -20 -56 -71l-141 -666h-333l177 829q8 38 -34 44 q-13 -3 -20 -5q-23 -10 -28 -39l-72 -330h-41l79 374q23 115 151 123h167q136 -8 136 -123q0 -20 -6 -44l-25 -122q56 269 310 289q197 -13 197 -205q0 -38 -11 -84q59 269 313 289q197 -13 197 -205q0 -38 -10 -84l-116 -541q-8 -38 34 -41q13 0 20 6q23 10 28 35z" />
<glyph unicode="n" d="M996 499h43l-82 -374q-23 -118 -151 -125h-163q-136 8 -136 123q0 20 5 43l105 500q15 77 -67 82q-23 -3 -43 -11q-46 -20 -56 -71l-141 -666h-333l177 829q8 38 -34 44q-13 -3 -20 -5q-23 -10 -28 -39l-72 -330h-41l79 374q23 115 151 123h167q136 -8 136 -123 q0 -20 -6 -44l-25 -122q56 269 310 289q197 -13 197 -205q0 -38 -11 -84l-115 -541q-8 -38 34 -41q13 0 23 6q23 10 28 35z" />
<glyph unicode="o" d="M996 499h43l-71 -333q-15 -77 -100 -84q-79 0 -67 84l13 64q-148 -230 -422 -230q-97 5 -169 38q-169 77 -169 269q0 51 13 108l87 414q8 38 -34 44q-13 -3 -20 -5q-23 -10 -28 -39l-72 -330h-41l69 330q18 79 103 85q77 0 64 -85l-13 -64q148 230 422 231 q100 -5 169 -39q172 -77 172 -268q0 -49 -13 -108l-90 -415q-8 -38 34 -41q13 0 23 6q23 10 28 35zM545 333l72 333q15 77 -67 82q-23 -3 -43 -11q-46 -20 -56 -71l-72 -333q-15 -77 66 -85q26 3 44 11q46 20 56 74z" />
<glyph unicode="p" d="M998 499h44l-72 -333q-15 -77 -100 -84q-56 0 -69 51q-95 -133 -240 -133q-197 15 -197 205q0 38 10 87l-151 -707h-167q-136 8 -135 123q0 20 5 44l230 1077q8 38 -33 44q-13 -3 -21 -5q-23 -10 -28 -39l-71 -330h-41l79 374q36 123 151 123h166q136 -8 136 -123 q0 -20 -5 -44l-28 -122q59 269 312 289q195 0 195 -215q0 -41 -8 -74l-115 -541q-8 -38 33 -41q13 0 23 6q23 10 28 35zM548 333l72 333q8 33 -11.5 57.5t-55.5 24.5q-33 0 -62.5 -24.5t-37.5 -57.5l-72 -333q-15 -77 67 -85q26 3 44 11q46 20 56 74z" />
<glyph unicode="q" d="M758 -248q-8 -38 33 -44q10 3 21 5q23 13 28 39l158 747h44l-169 -791q-36 -123 -151 -123h-166q-136 8 -136 123q0 20 5 44l115 540q-59 -271 -312 -292q-197 15 -197 205q0 38 10 87l115 537q8 38 -33 44q-13 -3 -21 -5q-23 -10 -28 -39l-71 -330h-41l69 330 q18 79 102 85q77 0 64 -85l-13 -64q148 230 423 231q100 -5 169 -39q172 -77 171 -268q0 -49 -13 -108zM548 333l72 333q15 77 -67 82q-23 -3 -44 -11q-46 -20 -56 -71l-72 -333q-15 -77 67 -85q26 3 44 11q46 20 56 74z" />
<glyph unicode="r" horiz-adv-x="788" d="M771 996l-123 -581q-10 -38 30 -41q13 0 23 5q23 10 29 36l18 84h40l-17 -84q-15 -77 -100 -82q-82 5 -67 82l10 41l-181 125l-123 -581h-333l177 829q8 38 -34 44q-13 -3 -20 -5q-23 -10 -28 -39l-72 -330h-41l79 374q23 115 151 123h333l-54 -248l262 248h41z" />
<glyph unicode="s" horiz-adv-x="747" d="M707 499h41l-44 -207q-18 -79 -102 -85h-6q-92 -207 -371 -207h-164q-118 0 -99 125q36 123 151 123h166q3 15 3 28q0 49 -52 103q-87 92 -94 102q-51 74 -52 169q0 46 11 98q-41 0 -51 -41l-44 -208h-41l44 208q15 77 99 81h8q92 207 369 208h166q115 0 100 -123 q-36 -125 -151 -125h-166q-3 -15 -3 -29q0 -49 51 -102q87 -90 95 -102q51 -74 51 -169q0 -44 -10 -98q41 0 51 44zM535 873q-59 0 -95 -85h121q41 0 48 41q8 44 -30 44h-44zM169 125q59 0 97 82h-120q-41 0 -51 -41q-5 -41 33 -41h41z" />
<glyph unicode="t" horiz-adv-x="665" d="M622 499h44l-80 -374q-26 -118 -153 -125h-290q-136 8 -135 123q0 20 5 43l123 582h-82l-54 -249h-41l87 415h126l87 415h332l-87 -415h123l-33 -166h-126l-104 -500h163q13 3 23 5q23 10 29 39z" />
<glyph unicode="u" d="M38 292l116 537q8 38 -34 44q-13 -3 -20 -5q-23 -10 -28 -39l-72 -330h-41l79 374q36 123 151 123h167q136 -8 136 -123q0 -20 -6 -44l-107 -496q-15 -77 66 -85q26 3 44 11q46 20 56 74l141 663h166q136 -8 136 -123q0 -20 -5 -44l-141 -663q-8 -38 34 -41q13 0 23 6 q23 10 28 35l69 333h43l-82 -374q-33 -125 -151 -125h-163q-136 8 -136 123q0 20 5 43l26 126q-59 -271 -313 -292q-197 15 -197 205q0 38 10 87z" />
<glyph unicode="v" horiz-adv-x="913" d="M873 499h41l-72 -333q-15 -77 -100 -84q-77 0 -66 84q-118 -166 -325 -166q-228 0 -228 248q0 46 8 85l89 415h-125q-13 0 -23 -6q-23 -10 -28 -35l-44 -208h-41l79 374q23 115 151 123h208l-141 -663q-13 -84 64 -85q26 3 44 11q46 20 58 74l141 663h167 q136 -8 135 -123q0 -20 -5 -44l-141 -663q-10 -38 31 -41q13 0 23 6q23 10 28 35z" />
<glyph unicode="w" horiz-adv-x="1328" d="M1288 499h41l-72 -333q-15 -77 -100 -84q-67 0 -66 69q-113 -151 -308 -151q-164 0 -222 115q-105 -115 -274 -115q-253 15 -254 228q0 38 11 82l110 519q8 38 -34 44q-13 -3 -20 -5q-23 -10 -28 -39l-72 -330h-41l79 374q23 115 151 123q102 -5 103 -92q0 -15 -5 -31 l-115 -540q-15 -77 66 -85q23 3 44 11q46 20 56 74l141 663h166q136 0 136 -131q0 -18 -5 -36l-105 -496q-15 -77 66 -85q23 3 44 11q46 20 56 74l141 663h166q136 -8 136 -123q0 -20 -5 -44l-141 -663q-8 -38 33 -41q10 0 21 6q23 10 28 35z" />
<glyph unicode="x" horiz-adv-x="788" d="M748 499h40l-104 -499h-41l-297 274l-87 -154q-69 -118 -164 -117q-20 0 -36 5q-61 28 -62 87q0 33 23 71l67 118l36 -15l-46 -77q-8 -13 -8 -23q0 -20 23 -31q36 -10 59 26l110 192l-243 225l-18 -82h-41l105 497h41l297 -274l87 154q69 120 164 120q20 0 36 -8 q61 -28 61 -87q0 -33 -23 -72l-67 -117l-35 15l46 77q5 13 5 25q0 18 -21 29q-36 13 -59 -26l-110 -189l244 -228z" />
<glyph unicode="y" d="M461 -82h-249q-44 0 -51 -43q-5 -41 34 -41h166q23 3 43 10q47 20 57 74zM998 499h44l-108 -499q-15 -77 -99 -82h-41q-46 -210 -251 -292q-84 -36 -195 -41h-248q-115 0 -100 123l28 126q23 115 151 125h289l72 330q-59 -269 -312 -289q-197 15 -197 205q0 38 10 87 l115 537q8 38 -33 44q-13 -3 -21 -5q-23 -10 -28 -39l-71 -330h-41l79 374q36 123 151 123h166q136 -8 136 -123q0 -20 -5 -44l-108 -496q-15 -77 67 -85q26 3 44 11q46 20 56 74l141 663h166q136 0 136 -131q0 -18 -5 -36l-185 -870h41q13 0 23 5q23 10 28 36z" />
<glyph unicode="z" horiz-adv-x="872" d="M829 499h44l-79 -374q-13 -51 -56.5 -88t-94.5 -37h-500q-136 0 -135 120q0 67 38 121l218 304l-144 67l26 38l143 -66l118 164h-353l-54 -249h-41l79 374q10 51 55 87t96 36h500q136 0 135 -120q0 -64 -38 -121l-218 -304l141 -67l-25 -38l-144 69l-118 -167h356z" />
<glyph unicode="{" horiz-adv-x="747" d="M492 748q-46 -166 -200 -167q136 -8 136 -123q0 -20 -6 -43l-89 -415q-10 -82 66 -82h82l-18 -84h-166q-136 10 -136 122q0 20 5 44l98 456q13 84 -64 84h-85l18 82h85q23 3 43 10q46 20 56 75l98 455q46 166 199 167h167l-18 -82h-82q-26 -3 -44 -11q-46 -23 -56 -74z " />
<glyph unicode="|" horiz-adv-x="332" d="M274 1329h84l-302 -1411h-82z" />
<glyph unicode="}" horiz-adv-x="747" d="M325 748l90 414q15 77 -67 85h-82l18 82h167q133 0 133 -131q0 -18 -3 -36l-97 -455q-18 -77 64 -85h84l-18 -82h-84q-82 0 -100 -84l-97 -456q-33 -154 -202 -166h-164l15 84h85q82 0 99 82l90 415q33 154 200 166q-133 0 -133 131q-1 21 2 36z" />
<glyph unicode="~" horiz-adv-x="1029" d="M113 468q18 79 79 139q74 74 179 74q100 0 195 -118q67 -84 118 -84q56 0 87 41q18 23 25 51h118q-15 -79 -77 -138q-74 -74 -179 -75q-102 0 -195 118q-67 84 -117 85q-56 0 -87 -41q-18 -23 -26 -52h-120z" />
<glyph unicode="&#xa1;" horiz-adv-x="581" d="M361 666q-59 0 -96 37t-37 93q0 77 62.5 138.5t142.5 61.5q59 0 96 -37t37 -94q0 -79 -63 -139t-142 -60zM315 -333h-333l36 167l225 665h167l-59 -665z" />
<glyph unicode="&#xa2;" horiz-adv-x="1121" d="M1050 914h-292l-105 -499h166q115 0 97 -123l-25 -126h-292l-33 -166h-85l36 166q-123 8 -210 41q-210 79 -210 282q0 44 11 92l35 167q54 259 325 363q113 44 262 51l33 167h84l-35 -167h166q102 -5 102 -92q0 -15 -5 -31zM571 415l105 499q-49 -3 -87 -21 q-92 -41 -115 -145l-34 -167q-5 -23 -5 -43q0 -113 136 -123z" />
<glyph unicode="&#xa3;" horiz-adv-x="1180" d="M904 248q118 0 100 -123l-29 -125h-870l133 622h-210l18 85h207l47 207q54 259 325 363q113 44 261 52h82q102 -5 102 -93q0 -15 -2 -33l-29 -123h-207q-49 -5 -87 -20q-92 -44 -115 -146l-44 -207h333l-18 -85h-333l-79 -374h415z" />
<glyph unicode="&#xa4;" horiz-adv-x="1126" d="M724 1080q-49 -5 -87 -20q-92 -44 -112 -146l-28 -126h373l-18 -81h-373l-18 -85h374l-16 -82h-374l-28 -125q-5 -23 -5 -44q0 -113 136 -123h251q115 0 97 -123l-26 -125h-373q-123 8 -213 41q-210 79 -210 282q0 44 10 92l29 125h-167l18 82h167l17 85h-166l18 81h164 l28 126q54 259 325 363q113 44 261 52h249q102 -5 102 -93q0 -15 -3 -33l-28 -123h-374z" />
<glyph unicode="&#xa5;" horiz-adv-x="1221" d="M1313 1329l-532 -830h230l-18 -84h-248l-18 -82h248l-18 -85h-248l-54 -248h-330l51 248h-289l18 85h289l18 82h-292l18 84h272l-218 830h215q38 -3 64 -16q64 -31 67 -110l110 -455l263 455q64 113 185 126h217z" />
<glyph unicode="&#xa6;" horiz-adv-x="332" d="M274 1329h84l-140 -663h-85zM-26 -82l141 663h85l-144 -663h-82z" />
<glyph unicode="&#xa7;" horiz-adv-x="1121" d="M553 952q-15 -77 92.5 -139.5t214.5 -123.5q118 -92 118 -231q0 -44 -8 -89l-71 -328q-49 -233 -297 -328q-102 -38 -238 -46h-249q-102 8 -102 92q0 15 2 34l29 125h373q115 0 151 123q3 13 3 26q0 67 -113 128q-184 105 -205 122q-113 90 -112 221q0 41 10 84l69 330 q51 233 300 328q102 41 238 49h207q102 -5 103 -93q0 -15 -6 -33l-25 -123h-333q-115 0 -151 -128zM353 788q-10 -46 -10 -87q0 -138 118 -230q108 -61 216.5 -124t90.5 -140q10 46 10 87q0 141 -120 233q-105 61 -214 124t-91 137z" />
<glyph unicode="&#xa8;" horiz-adv-x="829" d="M251 1329q44 0 66.5 -31t15.5 -72q-10 -44 -47.5 -74.5t-78.5 -30.5q-44 0 -68 31t-14 74q8 41 45 72t81 31zM625 1329q44 0 66.5 -31t15.5 -72q-10 -44 -47.5 -74.5t-78.5 -30.5q-44 0 -68 31t-14 74q8 41 45 72t81 31z" />
<glyph unicode="&#xa9;" horiz-adv-x="1576" d="M929 1329q238 0 389 -148.5t151 -376.5q0 -69 -15 -138q-59 -276 -294.5 -471t-511.5 -195q-238 0 -388 150t-150 375q0 69 15 141q59 274 294.5 468.5t509.5 194.5zM655 41q259 0 480.5 183t277.5 442q13 64 13 128q0 215 -141 354.5t-363 139.5q-259 0 -480.5 -183 t-275.5 -439q-15 -67 -15 -131q0 -215 142 -354.5t362 -139.5zM1052 727h-125l25 125q5 15 5 31q0 87 -102 92q-36 -3 -67 -15q-67 -31 -84 -108l-79 -373q-3 -18 -3 -34q0 -87 100 -92q118 0 151 126l28 123h123q118 0 100 -123q-41 -195 -246 -274q-84 -33 -194 -39 q-315 18 -315 241q0 33 7 72l80 373q41 195 243 272q84 33 197 38q315 -18 315 -240q0 -33 -8 -70q-36 -125 -151 -125z" />
<glyph unicode="&#xaa;" horiz-adv-x="829" d="M663 788h21l-13 -61q-13 -59 -75 -61h-84q-82 5 -64 82l20 104h-166l-38 -186h-167l98 455q41 192 291 208q212 -10 213 -162q0 -20 -5 -46l-80 -373q-5 -20 16 -21q10 0 25 21zM497 975l30 146q15 77 -66 82q-23 0 -44 -10q-46 -20 -56 -72l-31 -146h167zM660 581h-581 l11 41h581zM643 499h-582l11 41h581z" />
<glyph unicode="&#xab;" horiz-adv-x="1203" d="M704 709l-353 -192l274 -189l-31 -146l-469 335l612 338zM1152 855l-31 -146l-356 -192l274 -189l-30 -146l-469 335z" />
<glyph unicode="&#xac;" horiz-adv-x="913" d="M164 581h665l-79 -374h-125l53 249h-540z" />
<glyph unicode="&#xad;" horiz-adv-x="913" d="M110 456l28 125h663l-25 -125h-666z" />
<glyph unicode="&#xae;" horiz-adv-x="1246" d="M730 1329q177 0 289.5 -111.5t112.5 -283.5q0 -51 -11 -105q-44 -205 -220.5 -350.5t-383.5 -145.5q-179 0 -291.5 111.5t-112.5 282.5q0 51 12 102q44 207 221 353.5t384 146.5zM525 374q189 0 351.5 134.5t203.5 320.5q10 49 11 98q0 156 -104 258.5t-268 102.5 q-189 0 -350.5 -134.5t-202.5 -324.5q-10 -49 -10 -94q0 -156 104 -258.5t265 -102.5zM709 758l87 -136h64l-15 -61q-41 -61 -74 -62h-105l-113 249h-21l-53 -249h-167l144 663h248q210 -10 210 -161q0 -20 -5 -46q-31 -141 -200 -197zM643 873q23 0 43 10q46 20 56 72 q18 77 -64 84h-84l-36 -166h85z" />
<glyph unicode="&#xaf;" horiz-adv-x="1246" d="M1108 1203h-998l28 126h996z" />
<glyph unicode="&#xb0;" horiz-adv-x="680" d="M387 1462q77 0 125.5 -49t48.5 -123q0 -100 -82 -180.5t-185 -80.5q-77 0 -125.5 48.5t-48.5 123.5q0 102 82.5 181.5t184.5 79.5zM310 1106q67 0 120.5 51t53.5 118q0 49 -32 79.5t-81 30.5q-67 0 -120.5 -51t-53.5 -118q0 -49 32 -79.5t81 -30.5z" />
<glyph unicode="&#xb1;" horiz-adv-x="1743" d="M125 748l996 -82h123l-276 240l82 95l570 -502l-570 -499l-82 95l271 238h-118l-996 -85l167 251z" />
<glyph unicode="&#xb2;" horiz-adv-x="768" d="M650 1121q-36 -172 -340 -333h289l-13 -61q-41 -61 -74 -61h-438l28 122q123 74 208 136q156 118 174 197q10 82 -67 82q-23 0 -43 -10q-46 -20 -57 -72l-17 -82h-82q-79 0 -67 82q41 192 294 208q210 -10 210 -162q0 -20 -5 -46z" />
<glyph unicode="&#xb3;" horiz-adv-x="747" d="M466 1039q136 -10 136 -123q0 -20 -6 -43q-41 -195 -294 -207h-187q-61 3 -48 61l12 61h251q82 0 100 85q13 82 -64 82h-146l13 61l225 187h-289l13 64q41 61 77 62h414l-28 -126l-217 -164h38z" />
<glyph unicode="&#xb4;" horiz-adv-x="499" d="M202 1413h208l-238 -333h-82z" />
<glyph unicode="&#xb5;" d="M998 499h44l-79 -374q-36 -125 -151 -125h-167q-136 8 -136 123q0 20 6 43l25 126q-44 -207 -225 -279l-92 -428h-167q-136 8 -135 123q0 20 5 44l230 1077q8 38 -33 44q-13 -3 -21 -5q-23 -10 -28 -39l-71 -330h-41l79 374q36 123 151 123h166q136 -8 136 -123 q0 -20 -5 -44l-108 -496q-15 -77 67 -85q26 3 44 11q46 20 56 74l141 663h166q136 -8 136 -123q0 -20 -5 -44l-141 -663q-8 -38 33 -41q13 0 23 6q23 10 28 35z" />
<glyph unicode="&#xb6;" horiz-adv-x="1080" d="M212 914q56 259 328 363q113 44 259 52h84l-353 -1662h-85l177 832q-123 5 -210 39q-210 82 -210 281q0 46 10 95zM1050 1329h82l-354 -1662h-82z" />
<glyph unicode="&#xb7;" horiz-adv-x="581" d="M325 666q61 0 98.5 -37.5t37.5 -93.5q0 -79 -64 -139.5t-141 -60.5q-59 0 -97.5 37.5t-38.5 93.5q0 77 64 138.5t141 61.5z" />
<glyph unicode="&#xb8;" horiz-adv-x="499" d="M297 -415h-207l235 333h85z" />
<glyph unicode="&#xb9;" horiz-adv-x="581" d="M307 686h85l-5 -20h-333l5 20h82l133 622h-62l3 21h230z" />
<glyph unicode="&#xba;" horiz-adv-x="747" d="M668 1121l-54 -248q-41 -195 -294 -207q-210 10 -210 158q0 23 5 49l54 248q41 192 292 208q212 -10 212 -162q0 -20 -5 -46zM348 788q23 3 44 11q46 20 56 74l54 248q15 77 -67 82q-23 0 -43 -10q-46 -20 -57 -72l-53 -248q-16 -77 66 -85zM553 581h-499l10 41h497z M535 499h-499l10 41h497z" />
<glyph unicode="&#xbb;" horiz-adv-x="1203" d="M581 709l31 146l468 -338l-612 -335l31 146l356 189zM197 855l469 -338l-612 -335l30 146l354 189l-272 192z" />
<glyph unicode="&#xbc;" horiz-adv-x="1162" d="M1137 1162q-23 0 -44 -10q-46 -20 -56 -72l-36 -166h125l-105 -499q-10 -38 31 -41q13 0 23 5q23 10 28 36l18 84h41l-18 -84q-15 -77 -100 -82q-77 0 -66 82l72 333h-82l-213 -996q-33 -156 -202 -167h-166l248 1163h-167l-212 -996q-33 -156 -202 -167h-164l246 1163 h-82l-54 -249h-41l87 415h126l25 125q51 233 256 325q87 38 197 49q115 0 100 -125l-28 -126h-82q-26 0 -44 -10q-46 -20 -58 -72l-34 -166h167l25 125q49 233 256 325q87 38 197 49h82q118 0 100 -125l-28 -126h-166z" />
<glyph unicode="&#xbd;" horiz-adv-x="1536" d="M1495 499h41l-79 -374q-23 -118 -151 -125h-167q-136 8 -135 123q0 20 5 43l123 582h-164l-213 -996q-33 -156 -202 -167h-166l248 1163h-167l-212 -996q-33 -156 -202 -167h-164l246 1163h-82l-54 -249h-41l87 415h126l25 125q51 233 256 325q87 38 197 49 q115 0 100 -125l-28 -126h-82q-26 0 -44 -10q-46 -20 -58 -72l-34 -166h167l25 125q49 233 256 325q87 38 197 49h249q115 0 100 -125l-29 -126h-332q-23 0 -44 -10q-46 -20 -56 -72l-36 -166h333q136 -10 135 -123q0 -20 -5 -43l-123 -582q-8 -38 34 -41q13 0 20 6 q23 10 28 35z" />
<glyph unicode="&#xbe;" horiz-adv-x="1536" d="M1495 499h41l-79 -374q-23 -118 -151 -125h-167q-136 8 -135 123q0 20 5 43l212 996h-84q-23 0 -44 -10q-46 -20 -56 -72l-36 -166h84l-35 -166h-82l-213 -996q-33 -156 -202 -167h-166l248 1163h-167l-212 -996q-33 -156 -202 -167h-164l246 1163h-82l-54 -249h-41 l87 415h126l25 125q51 233 256 325q87 38 197 49q115 0 100 -125l-28 -126h-82q-26 0 -44 -10q-46 -20 -58 -72l-34 -166h167l25 125q49 233 256 325q87 38 197 49h290q138 -10 138 -123q0 -20 -5 -43l-231 -1081q-8 -38 34 -41q13 0 20 6q23 10 28 35z" />
<glyph unicode="&#xbf;" horiz-adv-x="1121" d="M481 -333q-123 8 -210 41q-210 79 -210 282q0 44 11 92q56 261 325 363q115 44 261 54h207l-25 -125q-26 -115 -151 -126h-85q-154 0 -200 -166q-3 -15 -2 -33q0 -131 133 -131h374l-28 -125q-23 -115 -151 -126h-249zM735 666q-59 0 -96 37t-37 93q0 77 62.5 138.5 t141.5 61.5q59 0 96.5 -37t37.5 -94q0 -79 -63 -139t-142 -60z" />
<glyph unicode="&#xc0;" horiz-adv-x="1308" d="M847 1743l-28 -330h-82l-97 330h207zM1129 248h41l-26 -123q-26 -118 -151 -125h-166q-136 8 -136 123q0 20 5 43l44 208h-333l-79 -374h-333l194 914q56 259 328 363q113 44 259 52q123 -8 210 -41q212 -79 212 -282q0 -44 -13 -92l-158 -748q-8 -38 33 -41q13 0 23 6 q23 10 28 35zM794 622l61 292q5 23 5 43q0 113 -136 123q-51 -5 -89 -20q-90 -44 -113 -146l-61 -292h333z" />
<glyph unicode="&#xc1;" horiz-adv-x="1308" d="M847 1743h208l-236 -330h-82zM1129 248h41l-26 -123q-26 -118 -151 -125h-166q-136 8 -136 123q0 20 5 43l44 208h-333l-79 -374h-333l194 914q56 259 328 363q113 44 259 52q123 -8 210 -41q212 -79 212 -282q0 -44 -13 -92l-158 -748q-8 -38 33 -41q13 0 23 6 q23 10 28 35zM794 622l61 292q5 23 5 43q0 113 -136 123q-51 -5 -89 -20q-90 -44 -113 -146l-61 -292h333z" />
<glyph unicode="&#xc2;" horiz-adv-x="1308" d="M927 1661l112 -248h-166l-54 138l-112 -138h-164l217 248h167zM1129 248h41l-26 -123q-26 -118 -151 -125h-166q-136 8 -136 123q0 20 5 43l44 208h-333l-79 -374h-333l194 914q56 259 328 363q113 44 259 52q123 -8 210 -41q212 -79 212 -282q0 -44 -13 -92l-158 -748 q-8 -38 33 -41q13 0 23 6q23 10 28 35zM794 622l61 292q5 23 5 43q0 113 -136 123q-51 -5 -89 -20q-90 -44 -113 -146l-61 -292h333z" />
<glyph unicode="&#xc3;" horiz-adv-x="1308" d="M1137 1613q-5 -67 -52 -121q-56 -69 -145 -79q-87 -13 -177 72q-54 49 -85 46q-33 -5 -44.5 -24.5t-11.5 -34.5v0l-130 -15q5 64 48 120q56 69 149 79q84 10 174 -71q54 -49 87 -46q31 5 42.5 23t13.5 35zM1129 248h41l-26 -123q-26 -118 -151 -125h-166q-136 8 -136 123 q0 20 5 43l44 208h-333l-79 -374h-333l194 914q56 259 328 363q113 44 259 52q123 -8 210 -41q212 -79 212 -282q0 -44 -13 -92l-158 -748q-8 -38 33 -41q13 0 23 6q23 10 28 35zM794 622l61 292q5 23 5 43q0 113 -136 123q-51 -5 -89 -20q-90 -44 -113 -146l-61 -292h333z " />
<glyph unicode="&#xc4;" horiz-adv-x="1308" d="M650 1620q44 0 67 -30.5t15 -73.5q-10 -44 -47 -73.5t-78 -29.5q-44 0 -68 29.5t-14 73.5q8 44 44.5 74t80.5 30zM1024 1620q44 0 67 -30.5t15 -73.5q-10 -44 -47.5 -73.5t-78.5 -29.5q-44 0 -68 29.5t-13 73.5q8 44 44.5 74t80.5 30zM1129 248h41l-26 -123 q-26 -118 -151 -125h-166q-136 8 -136 123q0 20 5 43l44 208h-333l-79 -374h-333l194 914q56 259 328 363q113 44 259 52q123 -8 210 -41q212 -79 212 -282q0 -44 -13 -92l-158 -748q-8 -38 33 -41q13 0 23 6q23 10 28 35zM794 622l61 292q5 23 5 43q0 113 -136 123 q-51 -5 -89 -20q-90 -44 -113 -146l-61 -292h333z" />
<glyph unicode="&#xc5;" horiz-adv-x="1308" d="M865 1743q59 0 96 -37t37 -93q0 -79 -62.5 -139.5t-141.5 -60.5q-59 0 -97.5 37t-38.5 94q0 77 64 138t143 61zM812 1495q33 0 62.5 24.5t36.5 57.5q8 36 -11 60t-53 24q-36 0 -65 -24t-37 -60q-8 -33 11.5 -57.5t55.5 -24.5zM1129 248h41l-26 -123q-26 -118 -151 -125 h-166q-136 8 -136 123q0 20 5 43l44 208h-333l-79 -374h-333l194 914q56 259 328 363q113 44 259 52q123 -8 210 -41q212 -79 212 -282q0 -44 -13 -92l-158 -748q-8 -38 33 -41q13 0 23 6q23 10 28 35zM794 622l61 292q5 23 5 43q0 113 -136 123q-51 -5 -89 -20 q-90 -44 -113 -146l-61 -292h333z" />
<glyph unicode="&#xc6;" horiz-adv-x="1774" d="M1044 248h541l-26 -123q-36 -125 -151 -125h-748l80 374h-333l-79 -374h-333l194 914q56 259 328 363q113 44 259 52h873q102 -5 102 -93q0 -15 -5 -33l-26 -123h-499l-51 -251h289q102 -5 103 -92q0 -13 -6 -30l-25 -126h-415zM891 1080h-167q-51 -5 -89 -20 q-90 -44 -113 -146l-61 -292h333z" />
<glyph unicode="&#xc7;" horiz-adv-x="1246" d="M384 -415h-210l238 333h82zM937 581q133 0 133 -130q0 -18 -2 -36q-54 -259 -326 -364q-113 -44 -261 -51q-123 8 -210 41q-210 79 -210 282q0 44 11 92l105 499q56 259 327 363q113 44 259 52q123 -8 212 -41q210 -79 210 -282q0 -44 -10 -92q-49 -166 -202 -166h-167 l36 166q5 23 5 43q0 113 -135 123q-49 -5 -87 -20q-92 -44 -116 -146l-105 -499q-5 -23 -5 -44q0 -113 136 -123q154 0 200 167l36 166h166z" />
<glyph unicode="&#xc8;" horiz-adv-x="1095" d="M796 1743l-28 -330h-82l-97 330h207zM394 248h540l-28 -123q-36 -125 -151 -125h-747l284 1329h704q102 -8 102 -93q0 -15 -2 -33l-28 -123h-497l-54 -251h289q102 -5 103 -92q0 -13 -3 -30l-28 -126h-415z" />
<glyph unicode="&#xc9;" horiz-adv-x="1095" d="M765 1743h208l-238 -330h-82zM394 248h540l-28 -123q-36 -125 -151 -125h-747l284 1329h704q102 -8 102 -93q0 -15 -2 -33l-28 -123h-497l-54 -251h289q102 -5 103 -92q0 -13 -3 -30l-28 -126h-415z" />
<glyph unicode="&#xca;" horiz-adv-x="1095" d="M852 1661l113 -248h-166l-54 138l-113 -138h-166l220 248h166zM394 248h540l-28 -123q-36 -125 -151 -125h-747l284 1329h704q102 -8 102 -93q0 -15 -2 -33l-28 -123h-497l-54 -251h289q102 -5 103 -92q0 -13 -3 -30l-28 -126h-415z" />
<glyph unicode="&#xcb;" horiz-adv-x="1095" d="M586 1620q44 0 68 -30.5t14 -73.5q-8 -44 -45 -73.5t-80 -29.5q-44 0 -67 29.5t-15 73.5q10 44 45.5 74t79.5 30zM960 1620q44 0 68 -30.5t14 -73.5q-8 -44 -45 -73.5t-81 -29.5t-68 29.5t-13 73.5q10 44 45.5 74t79.5 30zM394 248h540l-28 -123q-36 -125 -151 -125h-747 l284 1329h704q102 -8 102 -93q0 -15 -2 -33l-28 -123h-497l-54 -251h289q102 -5 103 -92q0 -13 -3 -30l-28 -126h-415z" />
<glyph unicode="&#xcc;" horiz-adv-x="655" d="M543 1743l-28 -330h-82l-98 330h208zM476 248h41l-25 -123q-26 -118 -152 -125h-166q-136 8 -136 123q0 20 6 43l248 1163h330l-246 -1163q-8 -38 34 -41q10 0 20 6q23 10 28 35z" />
<glyph unicode="&#xcd;" horiz-adv-x="655" d="M535 1743h207l-235 -330h-82zM476 248h41l-25 -123q-26 -118 -152 -125h-166q-136 8 -136 123q0 20 6 43l248 1163h330l-246 -1163q-8 -38 34 -41q10 0 20 6q23 10 28 35z" />
<glyph unicode="&#xce;" horiz-adv-x="655" d="M607 1661l112 -248h-166l-54 138l-112 -138h-167l220 248h167zM476 248h41l-25 -123q-26 -118 -152 -125h-166q-136 8 -136 123q0 20 6 43l248 1163h330l-246 -1163q-8 -38 34 -41q10 0 20 6q23 10 28 35z" />
<glyph unicode="&#xcf;" horiz-adv-x="655" d="M328 1620q41 0 65 -30.5t14 -73.5q-8 -44 -45 -73.5t-80 -29.5q-41 0 -65.5 29.5t-16.5 73.5q10 44 47 74t81 30zM701 1620q41 0 65.5 -30.5t14.5 -73.5q-8 -44 -45 -73.5t-81 -29.5t-66.5 29.5t-15.5 73.5q10 44 47 74t81 30zM476 248h41l-25 -123q-26 -118 -152 -125 h-166q-136 8 -136 123q0 20 6 43l248 1163h330l-246 -1163q-8 -38 34 -41q10 0 20 6q23 10 28 35z" />
<glyph unicode="&#xd0;" d="M996 499h43l-82 -374q-23 -118 -151 -125h-163q-136 8 -136 123q0 20 5 43l123 582h-167l-212 -996q-33 -156 -202 -167h-164l246 1163h-82l-54 -249h-41l87 415h126l25 125q51 233 256 325q87 38 197 49h251q115 0 97 -125l-25 -126h-333q-26 0 -44 -10q-46 -20 -58 -72 l-34 -166h331q136 -10 135 -123q0 -20 -2 -43l-126 -582q-8 -38 34 -41q13 0 23 6q23 10 28 35z" />
<glyph unicode="&#xd1;" horiz-adv-x="1320" d="M1137 1613q-5 -67 -52 -121q-56 -69 -145 -79q-87 -13 -177 72q-54 49 -85 46q-33 -5 -44.5 -24.5t-11.5 -34.5v0l-130 -15q5 64 48 120q56 69 149 79q84 10 174 -71q54 -49 87 -46q31 5 42.5 23t13.5 35zM1142 248h41l-26 -123q-36 -125 -151 -125h-210q-100 8 -100 92 q0 15 3 33l169 789q5 23 5 43q0 113 -136 123q-51 -5 -89 -20q-92 -44 -113 -146l-195 -914h-332l284 1329h330l-69 -333q44 207 228 292q77 33 174 41q271 -18 271 -246q0 -41 -10 -87l-177 -830q-8 -38 34 -41q13 0 23 6q23 10 28 35z" />
<glyph unicode="&#xd2;" horiz-adv-x="1246" d="M847 1743l-28 -330h-82l-97 330h207zM1175 914l-107 -499q-54 -259 -326 -364q-113 -44 -261 -51q-123 8 -210 41q-210 79 -210 282q0 44 11 92l105 499q56 259 327 363q113 44 259 52q123 -8 212 -41q210 -79 210 -282q0 -43 -10 -92zM535 248q49 5 87 21q92 44 113 146 l107 499q5 23 5 43q0 113 -135 123q-49 -5 -87 -20q-92 -44 -116 -146l-105 -499q-5 -23 -5 -44q0 -113 136 -123z" />
<glyph unicode="&#xd3;" horiz-adv-x="1246" d="M847 1743h208l-236 -330h-82zM1175 914l-107 -499q-54 -259 -326 -364q-113 -44 -261 -51q-123 8 -210 41q-210 79 -210 282q0 44 11 92l105 499q56 259 327 363q113 44 259 52q123 -8 212 -41q210 -79 210 -282q0 -43 -10 -92zM535 248q49 5 87 21q92 44 113 146 l107 499q5 23 5 43q0 113 -135 123q-49 -5 -87 -20q-92 -44 -116 -146l-105 -499q-5 -23 -5 -44q0 -113 136 -123z" />
<glyph unicode="&#xd4;" horiz-adv-x="1246" d="M927 1661l112 -248h-166l-54 138l-112 -138h-164l217 248h167zM1175 914l-107 -499q-54 -259 -326 -364q-113 -44 -261 -51q-123 8 -210 41q-210 79 -210 282q0 44 11 92l105 499q56 259 327 363q113 44 259 52q123 -8 212 -41q210 -79 210 -282q0 -43 -10 -92zM535 248 q49 5 87 21q92 44 113 146l107 499q5 23 5 43q0 113 -135 123q-49 -5 -87 -20q-92 -44 -116 -146l-105 -499q-5 -23 -5 -44q0 -113 136 -123z" />
<glyph unicode="&#xd5;" horiz-adv-x="1246" d="M1137 1613q-5 -67 -52 -121q-56 -69 -145 -79q-87 -13 -177 72q-54 49 -85 46q-33 -5 -44.5 -24.5t-11.5 -34.5v0l-130 -15q5 64 48 120q56 69 149 79q84 10 174 -71q54 -49 87 -46q31 5 42.5 23t13.5 35zM1175 914l-107 -499q-54 -259 -326 -364q-113 -44 -261 -51 q-123 8 -210 41q-210 79 -210 282q0 44 11 92l105 499q56 259 327 363q113 44 259 52q123 -8 212 -41q210 -79 210 -282q0 -43 -10 -92zM535 248q49 5 87 21q92 44 113 146l107 499q5 23 5 43q0 113 -135 123q-49 -5 -87 -20q-92 -44 -116 -146l-105 -499q-5 -23 -5 -44 q0 -113 136 -123z" />
<glyph unicode="&#xd6;" horiz-adv-x="1246" d="M650 1620q44 0 67 -30.5t15 -73.5q-10 -44 -47 -73.5t-78 -29.5q-44 0 -68 29.5t-14 73.5q8 44 44.5 74t80.5 30zM1024 1620q44 0 67 -30.5t15 -73.5q-10 -44 -47.5 -73.5t-78.5 -29.5q-44 0 -68 29.5t-13 73.5q8 44 44.5 74t80.5 30zM1175 914l-107 -499 q-54 -259 -326 -364q-113 -44 -261 -51q-123 8 -210 41q-210 79 -210 282q0 44 11 92l105 499q56 259 327 363q113 44 259 52q123 -8 212 -41q210 -79 210 -282q0 -43 -10 -92zM535 248q49 5 87 21q92 44 113 146l107 499q5 23 5 43q0 113 -135 123q-49 -5 -87 -20 q-92 -44 -116 -146l-105 -499q-5 -23 -5 -44q0 -113 136 -123z" />
<glyph unicode="&#xd7;" horiz-adv-x="806" d="M653 799l69 -90l-230 -189l151 -192l-108 -87l-151 189l-230 -189l-70 87l231 192l-149 189l105 90l151 -192z" />
<glyph unicode="&#xd8;" horiz-adv-x="1269" d="M1114 1211q82 -100 82 -225q0 -36 -8 -72l-108 -499q-54 -259 -325 -364q-113 -44 -261 -51q-205 0 -310 92l-69 -82l-31 23l72 85q-79 100 -79 225q0 36 7 72l105 499q56 259 328 363q113 44 259 52q205 0 312 -93l67 82l30 -20zM522 914l-102 -479l438 525 q-8 120 -134 120q-51 -5 -89 -20q-90 -44 -113 -146zM548 248q49 5 87 21q92 44 113 146l102 478l-435 -524q5 -121 133 -121z" />
<glyph unicode="&#xd9;" horiz-adv-x="1308" d="M847 1743l-28 -330h-82l-97 330h207zM1129 248h41l-26 -123q-26 -118 -151 -125h-166q-136 8 -136 123q0 20 5 43l34 167q-44 -207 -228 -292q-74 -33 -174 -41q-271 18 -272 246q0 41 11 87l212 996h330l-192 -914q-5 -23 -5 -44q0 -113 136 -123q49 5 87 21 q92 44 113 146l194 914h333l-248 -1163q-8 -38 33 -41q13 0 23 6q23 10 28 35z" />
<glyph unicode="&#xda;" horiz-adv-x="1308" d="M847 1743h208l-236 -330h-82zM1129 248h41l-26 -123q-26 -118 -151 -125h-166q-136 8 -136 123q0 20 5 43l34 167q-44 -207 -228 -292q-74 -33 -174 -41q-271 18 -272 246q0 41 11 87l212 996h330l-192 -914q-5 -23 -5 -44q0 -113 136 -123q49 5 87 21q92 44 113 146 l194 914h333l-248 -1163q-8 -38 33 -41q13 0 23 6q23 10 28 35z" />
<glyph unicode="&#xdb;" horiz-adv-x="1308" d="M927 1661l112 -248h-166l-54 138l-112 -138h-164l217 248h167zM1129 248h41l-26 -123q-26 -118 -151 -125h-166q-136 8 -136 123q0 20 5 43l34 167q-44 -207 -228 -292q-74 -33 -174 -41q-271 18 -272 246q0 41 11 87l212 996h330l-192 -914q-5 -23 -5 -44 q0 -113 136 -123q49 5 87 21q92 44 113 146l194 914h333l-248 -1163q-8 -38 33 -41q13 0 23 6q23 10 28 35z" />
<glyph unicode="&#xdc;" horiz-adv-x="1308" d="M650 1620q44 0 67 -30.5t15 -73.5q-10 -44 -47 -73.5t-78 -29.5q-44 0 -68 29.5t-14 73.5q8 44 44.5 74t80.5 30zM1024 1620q44 0 67 -30.5t15 -73.5q-10 -44 -47.5 -73.5t-78.5 -29.5q-44 0 -68 29.5t-13 73.5q8 44 44.5 74t80.5 30zM1129 248h41l-26 -123 q-26 -118 -151 -125h-166q-136 8 -136 123q0 20 5 43l34 167q-44 -207 -228 -292q-74 -33 -174 -41q-271 18 -272 246q0 41 11 87l212 996h330l-192 -914q-5 -23 -5 -44q0 -113 136 -123q49 5 87 21q92 44 113 146l194 914h333l-248 -1163q-8 -38 33 -41q13 0 23 6 q23 10 28 35z" />
<glyph unicode="&#xdd;" horiz-adv-x="1295" d="M847 1743h208l-236 -330h-82zM942 1329h333l-282 -1329q-46 -207 -248 -292q-87 -33 -197 -41h-499q-115 0 -98 126l26 125q26 115 151 123h125l-7 -41h-85q-41 0 -48 -41q-8 -41 30 -41h418q23 0 43 10q46 20 56 72l98 456q-44 -207 -228 -290q-77 -36 -177 -41 q-271 15 -271 244q0 41 10 87l187 873h330l-166 -789q-5 -23 -5 -43q0 -115 135 -123q49 3 87 20q92 41 116 146z" />
<glyph unicode="&#xde;" horiz-adv-x="1233" d="M745 1121q123 -8 210 -41q210 -79 210 -281q0 -44 -10 -92l-18 -85q-54 -259 -325 -363q-113 -44 -262 -52h-166l-44 -207h-332l284 1329h330l-43 -208h166zM804 622l18 85q5 23 5 43q0 113 -136 123h-166l-87 -417h166q49 5 87 23q93 41 113 143z" />
<glyph unicode="&#xdf;" horiz-adv-x="1203" d="M650 1413h415q82 -8 67 -84l-249 -581q-3 -15 -2 -29q0 -49 51 -102q87 -90 95 -102q54 -74 53 -169q0 -44 -12 -98q44 0 51 44l43 207h41l-43 -207q-15 -79 -100 -85h-5q-95 -207 -371 -207h-167q-115 0 -97 125q33 123 151 123h166q3 15 3 28q0 49 -51 103 q-87 92 -98 102q-51 74 -51 169q0 46 10 98l172 414h-82q-26 0 -44 -10q-46 -20 -58 -72l-282 -1328q-33 -156 -202 -167h-164l246 1163h-82l-54 -249h-41l87 415h126l25 125q51 233 256 325q87 39 197 49zM627 125q59 0 97 82h-122q-41 0 -49 -41t33 -41h41z" />
<glyph unicode="&#xe0;" horiz-adv-x="1036" d="M653 1413l-31 -333h-82l-95 333h208zM550 748h-496l-54 -249h-41l79 374q36 123 151 123h456q307 -18 307 -277q0 -44 -12 -97l-98 -456q-8 -38 34 -41q13 0 23 6q23 10 28 35l69 333h43l-82 -374q-23 -118 -151 -125h-163q-136 8 -136 123q0 20 2 43l29 123 q-59 -269 -313 -289q-192 0 -192 215q0 41 5 77q79 289 313 289h248l18 85q15 77 -67 82zM545 333l18 82h-82q-36 0 -65 -24.5t-37 -57.5q-5 -36 14 -60.5t52 -24.5t62.5 24.5t37.5 60.5z" />
<glyph unicode="&#xe1;" horiz-adv-x="1036" d="M660 1413h208l-236 -333h-84zM550 748h-496l-54 -249h-41l79 374q36 123 151 123h456q307 -18 307 -277q0 -44 -12 -97l-98 -456q-8 -38 34 -41q13 0 23 6q23 10 28 35l69 333h43l-82 -374q-23 -118 -151 -125h-163q-136 8 -136 123q0 20 2 43l29 123q-59 -269 -313 -289 q-192 0 -192 215q0 41 5 77q79 289 313 289h248l18 85q15 77 -67 82zM545 333l18 82h-82q-36 0 -65 -24.5t-37 -57.5q-5 -36 14 -60.5t52 -24.5t62.5 24.5t37.5 60.5z" />
<glyph unicode="&#xe2;" horiz-adv-x="1036" d="M735 1329l115 -249h-166l-54 139l-113 -139h-166l220 249h164zM550 748h-496l-54 -249h-41l79 374q36 123 151 123h456q307 -18 307 -277q0 -44 -12 -97l-98 -456q-8 -38 34 -41q13 0 23 6q23 10 28 35l69 333h43l-82 -374q-23 -118 -151 -125h-163q-136 8 -136 123 q0 20 2 43l29 123q-59 -269 -313 -289q-192 0 -192 215q0 41 5 77q79 289 313 289h248l18 85q15 77 -67 82zM545 333l18 82h-82q-36 0 -65 -24.5t-37 -57.5q-5 -36 14 -60.5t52 -24.5t62.5 24.5t37.5 60.5z" />
<glyph unicode="&#xe3;" horiz-adv-x="1036" d="M947 1285q-5 -67 -48 -120q-56 -69 -149 -82q-84 -10 -174 72q-54 51 -87 46q-31 -3 -42.5 -22t-13.5 -35v0l-131 -15q5 64 51 120q56 69 146 80q87 10 177 -72q54 -51 84 -46q33 5 45 23t14 33zM550 748h-496l-54 -249h-41l79 374q36 123 151 123h456q307 -18 307 -277 q0 -44 -12 -97l-98 -456q-8 -38 34 -41q13 0 23 6q23 10 28 35l69 333h43l-82 -374q-23 -118 -151 -125h-163q-136 8 -136 123q0 20 2 43l29 123q-59 -269 -313 -289q-192 0 -192 215q0 41 5 77q79 289 313 289h248l18 85q15 77 -67 82zM545 333l18 82h-82q-36 0 -65 -24.5 t-37 -57.5q-5 -36 14 -60.5t52 -24.5t62.5 24.5t37.5 60.5z" />
<glyph unicode="&#xe4;" horiz-adv-x="1036" d="M466 1329q44 0 67 -31t15 -72q-10 -44 -47.5 -74.5t-78.5 -30.5q-44 0 -68 31t-14 74q8 41 45 72t81 31zM840 1329q44 0 66.5 -31t15.5 -72q-10 -44 -47.5 -74.5t-78.5 -30.5q-44 0 -68 31t-14 74q8 41 45 72t81 31zM550 748h-496l-54 -249h-41l79 374q36 123 151 123 h456q307 -18 307 -277q0 -44 -12 -97l-98 -456q-8 -38 34 -41q13 0 23 6q23 10 28 35l69 333h43l-82 -374q-23 -118 -151 -125h-163q-136 8 -136 123q0 20 2 43l29 123q-59 -269 -313 -289q-192 0 -192 215q0 41 5 77q79 289 313 289h248l18 85q15 77 -67 82zM545 333l18 82 h-82q-36 0 -65 -24.5t-37 -57.5q-5 -36 14 -60.5t52 -24.5t62.5 24.5t37.5 60.5z" />
<glyph unicode="&#xe5;" horiz-adv-x="1036" d="M497 1413q69 0 117.5 -48.5t48.5 -117.5t-48.5 -118t-117.5 -49t-118 49t-49 118t49 117.5t118 48.5zM497 1162q36 0 60 24.5t24 60.5q0 33 -24.5 57.5t-59.5 24.5q-33 0 -57.5 -24.5t-24.5 -57.5q0 -36 24.5 -60.5t57.5 -24.5zM550 748h-496l-54 -249h-41l79 374 q36 123 151 123h456q307 -18 307 -277q0 -44 -12 -97l-98 -456q-8 -38 34 -41q13 0 23 6q23 10 28 35l69 333h43l-82 -374q-23 -118 -151 -125h-163q-136 8 -136 123q0 20 2 43l29 123q-59 -269 -313 -289q-192 0 -192 215q0 41 5 77q79 289 313 289h248l18 85q15 77 -67 82 zM545 333l18 82h-82q-36 0 -65 -24.5t-37 -57.5q-5 -36 14 -60.5t52 -24.5t62.5 24.5t37.5 60.5z" />
<glyph unicode="&#xe6;" horiz-adv-x="1454" d="M1413 499h41l-79 -374q-36 -125 -151 -125h-374q-264 0 -297 233q-123 -233 -328 -233q-192 0 -192 215q0 41 5 77q79 289 313 289h248l18 85q15 77 -67 82h-496l-54 -249h-41l79 374q36 123 151 123h456q123 0 197 -51q97 51 218 51q307 -18 307 -277q0 -44 -13 -97 l-43 -207h-415l-18 -82q-13 -84 67 -85h414zM950 666l-18 -85h166l18 85q15 77 -66 82q-26 -3 -44 -11q-46 -20 -56 -71zM545 333l18 82h-82q-36 0 -65 -24.5t-37 -57.5q-5 -36 14 -60.5t52 -24.5t62.5 24.5t37.5 60.5z" />
<glyph unicode="&#xe7;" horiz-adv-x="954" d="M333 -415h-210l238 333h82zM707 499h-126l36 167q15 77 -67 82q-23 -3 -43 -11q-46 -20 -56 -71l-72 -333q-15 -77 66 -85h415l54 251h41l-79 -374q-36 -125 -152 -125h-373q-305 20 -305 276q0 46 10 98l98 455q8 38 -34 44q-13 -3 -20 -5q-23 -10 -28 -39l-72 -330h-41 l69 330q18 79 103 85q77 0 64 -85l-6 -30q133 197 374 197q317 -15 318 -228q0 -31 -5 -61l-18 -85q-26 -115 -151 -123z" />
<glyph unicode="&#xe8;" horiz-adv-x="954" d="M653 1413l-31 -333h-82l-95 333h208zM445 248h415l54 251h41l-79 -374q-36 -125 -152 -125h-373q-305 20 -305 276q0 46 10 98l98 455q8 38 -34 44q-13 -3 -20 -5q-23 -10 -28 -39l-72 -330h-41l69 330q18 79 103 85q77 0 64 -85l-6 -30q133 197 374 197 q305 -18 305 -277q0 -44 -10 -97l-44 -207h-417l-18 -82q-11 -85 66 -85zM451 666l-18 -85h166l18 85q15 77 -67 82q-23 -3 -43 -11q-46 -20 -56 -71z" />
<glyph unicode="&#xe9;" horiz-adv-x="954" d="M660 1413h208l-236 -333h-84zM445 248h415l54 251h41l-79 -374q-36 -125 -152 -125h-373q-305 20 -305 276q0 46 10 98l98 455q8 38 -34 44q-13 -3 -20 -5q-23 -10 -28 -39l-72 -330h-41l69 330q18 79 103 85q77 0 64 -85l-6 -30q133 197 374 197q305 -18 305 -277 q0 -44 -10 -97l-44 -207h-417l-18 -82q-11 -85 66 -85zM451 666l-18 -85h166l18 85q15 77 -67 82q-23 -3 -43 -11q-46 -20 -56 -71z" />
<glyph unicode="&#xea;" horiz-adv-x="954" d="M735 1329l115 -249h-166l-54 139l-113 -139h-166l220 249h164zM445 248h415l54 251h41l-79 -374q-36 -125 -152 -125h-373q-305 20 -305 276q0 46 10 98l98 455q8 38 -34 44q-13 -3 -20 -5q-23 -10 -28 -39l-72 -330h-41l69 330q18 79 103 85q77 0 64 -85l-6 -30 q133 197 374 197q305 -18 305 -277q0 -44 -10 -97l-44 -207h-417l-18 -82q-11 -85 66 -85zM451 666l-18 -85h166l18 85q15 77 -67 82q-23 -3 -43 -11q-46 -20 -56 -71z" />
<glyph unicode="&#xeb;" horiz-adv-x="954" d="M466 1329q44 0 67 -31t15 -72q-10 -44 -47.5 -74.5t-78.5 -30.5q-44 0 -68 31t-14 74q8 41 45 72t81 31zM840 1329q44 0 66.5 -31t15.5 -72q-10 -44 -47.5 -74.5t-78.5 -30.5q-44 0 -68 31t-14 74q8 41 45 72t81 31zM445 248h415l54 251h41l-79 -374q-36 -125 -152 -125 h-373q-305 20 -305 276q0 46 10 98l98 455q8 38 -34 44q-13 -3 -20 -5q-23 -10 -28 -39l-72 -330h-41l69 330q18 79 103 85q77 0 64 -85l-6 -30q133 197 374 197q305 -18 305 -277q0 -44 -10 -97l-44 -207h-417l-18 -82q-11 -85 66 -85zM451 666l-18 -85h166l18 85 q15 77 -67 82q-23 -3 -43 -11q-46 -20 -56 -71z" />
<glyph unicode="&#xec;" horiz-adv-x="540" d="M420 1413l-28 -333h-85l-95 333h208zM499 499h41l-79 -374q-26 -118 -151 -125h-167q-136 8 -135 123q0 20 5 43l141 663q8 38 -34 44q-13 -3 -20 -5q-23 -10 -28 -39l-72 -330h-41l79 374q23 115 151 123h167q136 -8 136 -123q0 -20 -6 -44l-140 -663q-10 -38 30 -41 q13 0 23 6q23 10 29 35z" />
<glyph unicode="&#xed;" horiz-adv-x="540" d="M420 1413h207l-235 -333h-82zM499 499h41l-79 -374q-26 -118 -151 -125h-167q-136 8 -135 123q0 20 5 43l141 663q8 38 -34 44q-13 -3 -20 -5q-23 -10 -28 -39l-72 -330h-41l79 374q23 115 151 123h167q136 -8 136 -123q0 -20 -6 -44l-140 -663q-10 -38 30 -41q13 0 23 6 q23 10 29 35z" />
<glyph unicode="&#xee;" horiz-adv-x="540" d="M507 1329l113 -249h-167l-54 139l-112 -139h-167l220 249h167zM499 499h41l-79 -374q-26 -118 -151 -125h-167q-136 8 -135 123q0 20 5 43l141 663q8 38 -34 44q-13 -3 -20 -5q-23 -10 -28 -39l-72 -330h-41l79 374q23 115 151 123h167q136 -8 136 -123q0 -20 -6 -44 l-140 -663q-10 -38 30 -41q13 0 23 6q23 10 29 35z" />
<glyph unicode="&#xef;" horiz-adv-x="540" d="M210 1329q44 0 68 -31t14 -72q-10 -44 -46 -74.5t-80 -30.5t-68 31t-14 74q10 41 46 72t80 31zM584 1329q44 0 68 -31t14 -72q-10 -44 -46 -74.5t-80 -30.5t-68 31t-14 74q10 41 46 72t80 31zM499 499h41l-79 -374q-26 -118 -151 -125h-167q-136 8 -135 123q0 20 5 43 l141 663q8 38 -34 44q-13 -3 -20 -5q-23 -10 -28 -39l-72 -330h-41l79 374q23 115 151 123h167q136 -8 136 -123q0 -20 -6 -44l-140 -663q-10 -38 30 -41q13 0 23 6q23 10 29 35z" />
<glyph unicode="&#xf0;" d="M942 1413q136 -10 136 -123q0 -20 -5 -43l-231 -1081q-8 -38 34 -41q13 0 23 6q23 10 28 35l69 333h43l-82 -374q-23 -118 -151 -125h-163q-136 8 -136 123q0 20 5 43l210 996h-82q-26 0 -44 -10q-46 -20 -58 -72l-34 -166h82l-36 -166h-82l-212 -996q-33 -156 -202 -167 h-164l246 1163h-82l-54 -249h-41l87 415h126l25 125q51 233 256 325q87 38 197 49h292z" />
<glyph unicode="&#xf1;" d="M947 1285q-5 -67 -48 -120q-56 -69 -149 -82q-84 -10 -174 72q-54 51 -87 46q-31 -3 -42.5 -22t-13.5 -35v0l-131 -15q5 64 51 120q56 69 146 80q87 10 177 -72q54 -51 84 -46q33 5 45 23t14 33zM996 499h43l-82 -374q-23 -118 -151 -125h-163q-136 8 -136 123q0 20 2 43 l108 500q15 77 -67 82q-23 -3 -43 -11q-46 -20 -56 -71l-141 -666h-333l177 829q8 38 -34 44q-13 -3 -20 -5q-23 -10 -28 -39l-72 -330h-41l79 374q23 115 151 123h167q136 -8 136 -123q0 -20 -6 -44l-25 -122q56 269 310 289q197 -13 197 -205q0 -38 -11 -84l-115 -541 q-8 -38 34 -41q13 0 23 6q23 10 28 35z" />
<glyph unicode="&#xf2;" d="M704 1413l-31 -333h-82l-94 333h207zM996 499h43l-71 -333q-15 -77 -100 -84q-79 0 -67 84l13 64q-148 -230 -422 -230q-97 5 -169 38q-169 77 -169 269q0 51 13 108l87 414q8 38 -34 44q-13 -3 -20 -5q-23 -10 -28 -39l-72 -330h-41l69 330q18 79 103 85q77 0 64 -85 l-13 -64q148 230 422 231q100 -5 169 -39q172 -77 172 -268q0 -49 -13 -108l-90 -415q-8 -38 34 -41q13 0 23 6q23 10 28 35zM545 333l72 333q15 77 -67 82q-23 -3 -43 -11q-46 -20 -56 -71l-72 -333q-15 -77 66 -85q26 3 44 11q46 20 56 74z" />
<glyph unicode="&#xf3;" d="M686 1413h207l-235 -333h-85zM996 499h43l-71 -333q-15 -77 -100 -84q-79 0 -67 84l13 64q-148 -230 -422 -230q-97 5 -169 38q-169 77 -169 269q0 51 13 108l87 414q8 38 -34 44q-13 -3 -20 -5q-23 -10 -28 -39l-72 -330h-41l69 330q18 79 103 85q77 0 64 -85l-13 -64 q148 230 422 231q100 -5 169 -39q172 -77 172 -268q0 -49 -13 -108l-90 -415q-8 -38 34 -41q13 0 23 6q23 10 28 35zM545 333l72 333q15 77 -67 82q-23 -3 -43 -11q-46 -20 -56 -71l-72 -333q-15 -77 66 -85q26 3 44 11q46 20 56 74z" />
<glyph unicode="&#xf4;" d="M760 1329l116 -249h-167l-54 139l-112 -139h-167l220 249h164zM996 499h43l-71 -333q-15 -77 -100 -84q-79 0 -67 84l13 64q-148 -230 -422 -230q-97 5 -169 38q-169 77 -169 269q0 51 13 108l87 414q8 38 -34 44q-13 -3 -20 -5q-23 -10 -28 -39l-72 -330h-41l69 330 q18 79 103 85q77 0 64 -85l-13 -64q148 230 422 231q100 -5 169 -39q172 -77 172 -268q0 -49 -13 -108l-90 -415q-8 -38 34 -41q13 0 23 6q23 10 28 35zM545 333l72 333q15 77 -67 82q-23 -3 -43 -11q-46 -20 -56 -71l-72 -333q-15 -77 66 -85q26 3 44 11q46 20 56 74z" />
<glyph unicode="&#xf5;" d="M947 1285q-5 -67 -48 -120q-56 -69 -149 -82q-84 -10 -174 72q-54 51 -87 46q-31 -3 -42.5 -22t-13.5 -35v0l-131 -15q5 64 51 120q56 69 146 80q87 10 177 -72q54 -51 84 -46q33 5 45 23t14 33zM996 499h43l-71 -333q-15 -77 -100 -84q-79 0 -67 84l13 64 q-148 -230 -422 -230q-97 5 -169 38q-169 77 -169 269q0 51 13 108l87 414q8 38 -34 44q-13 -3 -20 -5q-23 -10 -28 -39l-72 -330h-41l69 330q18 79 103 85q77 0 64 -85l-13 -64q148 230 422 231q100 -5 169 -39q172 -77 172 -268q0 -49 -13 -108l-90 -415q-8 -38 34 -41 q13 0 23 6q23 10 28 35zM545 333l72 333q15 77 -67 82q-23 -3 -43 -11q-46 -20 -56 -71l-72 -333q-15 -77 66 -85q26 3 44 11q46 20 56 74z" />
<glyph unicode="&#xf6;" d="M466 1329q44 0 67 -31t15 -72q-10 -44 -47.5 -74.5t-78.5 -30.5q-44 0 -68 31t-14 74q8 41 45 72t81 31zM840 1329q44 0 66.5 -31t15.5 -72q-10 -44 -47.5 -74.5t-78.5 -30.5q-44 0 -68 31t-14 74q8 41 45 72t81 31zM996 499h43l-71 -333q-15 -77 -100 -84q-79 0 -67 84 l13 64q-148 -230 -422 -230q-97 5 -169 38q-169 77 -169 269q0 51 13 108l87 414q8 38 -34 44q-13 -3 -20 -5q-23 -10 -28 -39l-72 -330h-41l69 330q18 79 103 85q77 0 64 -85l-13 -64q148 230 422 231q100 -5 169 -39q172 -77 172 -268q0 -49 -13 -108l-90 -415 q-8 -38 34 -41q13 0 23 6q23 10 28 35zM545 333l72 333q15 77 -67 82q-23 -3 -43 -11q-46 -20 -56 -71l-72 -333q-15 -77 66 -85q26 3 44 11q46 20 56 74z" />
<glyph unicode="&#xf7;" horiz-adv-x="913" d="M138 581h663l-25 -125h-666zM497 707q-33 0 -52.5 24t-14.5 57q8 36 37.5 60.5t64.5 24.5q33 0 52.5 -24.5t11.5 -60.5q-8 -33 -37 -57t-62 -24zM417 333q33 0 52.5 -24.5t11.5 -60.5q-5 -33 -34.5 -57.5t-65.5 -24.5q-33 0 -52 24.5t-12 57.5q5 36 34.5 60.5t65.5 24.5z " />
<glyph unicode="&#xf8;" d="M996 499h43l-71 -333q-15 -77 -100 -84q-79 0 -67 84l13 64q-148 -230 -422 -230q-215 0 -292 143l-90 -71l-23 30l95 77q-26 72 -26 154q0 44 11 82l87 414q8 38 -34 44q-13 -3 -20 -5q-23 -10 -28 -39l-72 -330h-41l69 330q18 79 103 85q77 0 64 -85l-13 -64 q148 230 422 231q215 0 295 -144l87 72l23 -31l-95 -76q26 -72 26 -154q0 -41 -8 -82l-90 -415q-8 -38 34 -41q13 0 23 6q23 10 28 35zM451 666l-47 -221l200 167l13 54q15 77 -67 82q-23 -3 -43 -11q-46 -20 -56 -71zM445 248q26 3 44 11q46 20 56 74l49 220l-202 -166 l-13 -54q-16 -77 66 -85z" />
<glyph unicode="&#xf9;" d="M678 1413l-30 -333h-82l-95 333h207zM38 292l116 537q8 38 -34 44q-13 -3 -20 -5q-23 -10 -28 -39l-72 -330h-41l79 374q36 123 151 123h167q136 -8 136 -123q0 -20 -6 -44l-107 -496q-15 -77 66 -85q26 3 44 11q46 20 56 74l141 663h166q136 -8 136 -123q0 -20 -5 -44 l-141 -663q-8 -38 34 -41q13 0 23 6q23 10 28 35l69 333h43l-82 -374q-33 -125 -151 -125h-163q-136 8 -136 123q0 20 2 43l29 126q-59 -271 -313 -292q-197 15 -197 205q0 38 10 87z" />
<glyph unicode="&#xfa;" d="M686 1413h207l-235 -333h-85zM38 292l116 537q8 38 -34 44q-13 -3 -20 -5q-23 -10 -28 -39l-72 -330h-41l79 374q36 123 151 123h167q136 -8 136 -123q0 -20 -6 -44l-107 -496q-15 -77 66 -85q26 3 44 11q46 20 56 74l141 663h166q136 -8 136 -123q0 -20 -5 -44 l-141 -663q-8 -38 34 -41q13 0 23 6q23 10 28 35l69 333h43l-82 -374q-33 -125 -151 -125h-163q-136 8 -136 123q0 20 2 43l29 126q-59 -271 -313 -292q-197 15 -197 205q0 38 10 87z" />
<glyph unicode="&#xfb;" d="M760 1329l116 -249h-167l-54 139l-112 -139h-167l220 249h164zM38 292l116 537q8 38 -34 44q-13 -3 -20 -5q-23 -10 -28 -39l-72 -330h-41l79 374q36 123 151 123h167q136 -8 136 -123q0 -20 -6 -44l-107 -496q-15 -77 66 -85q26 3 44 11q46 20 56 74l141 663h166 q136 -8 136 -123q0 -20 -5 -44l-141 -663q-8 -38 34 -41q13 0 23 6q23 10 28 35l69 333h43l-82 -374q-33 -125 -151 -125h-163q-136 8 -136 123q0 20 2 43l29 126q-59 -271 -313 -292q-197 15 -197 205q0 38 10 87z" />
<glyph unicode="&#xfc;" d="M466 1329q44 0 67 -31t15 -72q-10 -44 -47.5 -74.5t-78.5 -30.5q-44 0 -68 31t-14 74q8 41 45 72t81 31zM840 1329q44 0 66.5 -31t15.5 -72q-10 -44 -47.5 -74.5t-78.5 -30.5q-44 0 -68 31t-14 74q8 41 45 72t81 31zM38 292l116 537q8 38 -34 44q-13 -3 -20 -5 q-23 -10 -28 -39l-72 -330h-41l79 374q36 123 151 123h167q136 -8 136 -123q0 -20 -6 -44l-107 -496q-15 -77 66 -85q26 3 44 11q46 20 56 74l141 663h166q136 -8 136 -123q0 -20 -5 -44l-141 -663q-8 -38 34 -41q13 0 23 6q23 10 28 35l69 333h43l-82 -374 q-33 -125 -151 -125h-163q-136 8 -136 123q0 20 2 43l29 126q-59 -271 -313 -292q-197 15 -197 205q0 38 10 87z" />
<glyph unicode="&#xfd;" d="M686 1413h207l-235 -333h-85zM461 -82h-249q-44 0 -51 -43q-5 -41 34 -41h163q26 3 46 10q47 20 57 74zM998 499h44l-108 -499q-15 -77 -99 -82h-41q-46 -210 -251 -292q-84 -33 -195 -41h-248q-115 0 -100 123l28 126q23 115 151 125h289l72 330q-59 -269 -312 -289 q-197 15 -197 205q0 38 10 87l115 537q8 38 -33 44q-13 -3 -21 -5q-23 -10 -28 -39l-71 -330h-41l79 374q36 123 151 123h166q136 -8 136 -123q0 -20 -5 -44l-108 -496q-15 -77 67 -85q26 3 44 11q46 20 56 74l141 663h166q136 0 136 -131q0 -18 -5 -36l-185 -870h41 q13 0 23 5q23 10 28 36z" />
<glyph unicode="&#xfe;" d="M996 499h43l-71 -333q-15 -77 -100 -84q-56 0 -69 51q-95 -133 -241 -133q-197 15 -197 205q0 38 10 87l-151 -707h-166q-136 8 -136 123q0 20 5 44l320 1495q8 38 -33 41q-13 0 -23 -5q-23 -10 -28 -36l-159 -748h-41l166 789q36 125 151 125h167q136 -10 136 -123 q0 -20 -6 -43l-115 -540q59 269 313 289q195 0 194 -215q0 -41 -8 -74l-115 -541q-8 -38 34 -41q13 0 23 6q23 10 28 35zM545 333l72 333q8 33 -11.5 57.5t-55.5 24.5q-33 0 -62.5 -24.5t-36.5 -57.5l-72 -333q-15 -77 66 -85q26 3 44 11q46 20 56 74z" />
<glyph unicode="&#xff;" d="M466 1329q44 0 67 -31t15 -72q-10 -44 -47.5 -74.5t-78.5 -30.5q-44 0 -68 31t-14 74q8 41 45 72t81 31zM840 1329q44 0 66.5 -31t15.5 -72q-10 -44 -47.5 -74.5t-78.5 -30.5q-44 0 -68 31t-14 74q8 41 45 72t81 31zM461 -82h-249q-44 0 -51 -43q-5 -41 34 -41h163 q26 3 46 10q47 20 57 74zM998 499h44l-108 -499q-15 -77 -99 -82h-41q-46 -210 -251 -292q-84 -33 -195 -41h-248q-115 0 -100 123l28 126q23 115 151 125h289l72 330q-59 -269 -312 -289q-197 15 -197 205q0 38 10 87l115 537q8 38 -33 44q-13 -3 -21 -5q-23 -10 -28 -39 l-71 -330h-41l79 374q36 123 151 123h166q136 -8 136 -123q0 -20 -5 -44l-108 -496q-15 -77 67 -85q26 3 44 11q46 20 56 74l141 663h166q136 0 136 -131q0 -18 -5 -36l-185 -870h41q13 0 23 5q23 10 28 36z" />
<glyph unicode="&#x152;" horiz-adv-x="1761" d="M1032 248h540l-26 -123q-36 -125 -151 -125h-914q-123 8 -210 41q-210 79 -210 282q0 44 11 92l105 499q56 259 327 363q113 44 259 52h873q102 -5 102 -93q0 -15 -5 -33l-25 -123h-500l-51 -251h289q102 -5 103 -92q0 -13 -3 -30l-28 -126h-415zM535 248h166l177 832 h-166q-49 -5 -87 -20q-92 -44 -116 -146l-105 -499q-5 -23 -5 -44q0 -113 136 -123z" />
<glyph unicode="&#x153;" horiz-adv-x="1454" d="M1413 499h41l-79 -374q-36 -125 -151 -125h-374q-133 0 -210 61q-108 -61 -248 -61q-97 5 -169 38q-169 77 -169 269q0 51 13 108l87 414q8 38 -34 44q-13 -3 -20 -5q-23 -10 -28 -39l-72 -330h-41l69 330q18 79 103 85q77 0 64 -85l-13 -64q148 230 422 231 q138 0 223 -62q102 61 233 62q307 -18 307 -277q0 -44 -13 -97l-43 -207h-415l-18 -82q-13 -84 67 -85h414zM950 666l-18 -85h166l18 85q15 77 -66 82q-26 -3 -44 -11q-46 -20 -56 -71zM545 333l72 333q15 77 -67 82q-23 -3 -43 -11q-46 -20 -56 -71l-72 -333 q-15 -77 66 -85q26 3 44 11q46 20 56 74z" />
<glyph unicode="&#x178;" horiz-adv-x="1295" d="M650 1620q44 0 67 -30.5t15 -73.5q-10 -44 -47 -73.5t-78 -29.5q-44 0 -68 29.5t-14 73.5q8 44 44.5 74t80.5 30zM1024 1620q44 0 67 -30.5t15 -73.5q-10 -44 -47.5 -73.5t-78.5 -29.5q-44 0 -68 29.5t-13 73.5q8 44 44.5 74t80.5 30zM942 1329h333l-282 -1329 q-46 -207 -248 -292q-87 -33 -197 -41h-499q-115 0 -98 126l26 125q26 115 151 123h125l-7 -41h-85q-41 0 -48 -41q-8 -41 30 -41h418q23 0 43 10q46 20 56 72l98 456q-44 -207 -228 -290q-77 -36 -177 -41q-271 15 -271 244q0 41 10 87l187 873h330l-166 -789 q-5 -23 -5 -43q0 -115 135 -123q49 3 87 20q92 41 116 146z" />
<glyph unicode="&#x2c6;" horiz-adv-x="747" d="M456 1329l166 -249h-166l-82 139l-82 -139h-167l167 249h164z" />
<glyph unicode="&#x2dc;" horiz-adv-x="865" d="M737 1285q10 -67 -23 -120q-41 -69 -130 -82q-84 -10 -190 72q-67 51 -97 46q-31 -3 -38.5 -22t-5.5 -35v0l-128 -15q-8 64 26 120q41 69 131 80q82 10 189 -72q64 -51 97 -46q31 5 37.5 23t6.5 33z" />
<glyph unicode="&#x2000;" horiz-adv-x="871" />
<glyph unicode="&#x2001;" horiz-adv-x="1743" />
<glyph unicode="&#x2002;" horiz-adv-x="871" />
<glyph unicode="&#x2003;" horiz-adv-x="1743" />
<glyph unicode="&#x2004;" horiz-adv-x="581" />
<glyph unicode="&#x2005;" horiz-adv-x="435" />
<glyph unicode="&#x2006;" horiz-adv-x="290" />
<glyph unicode="&#x2007;" horiz-adv-x="290" />
<glyph unicode="&#x2008;" horiz-adv-x="217" />
<glyph unicode="&#x2009;" horiz-adv-x="348" />
<glyph unicode="&#x200a;" horiz-adv-x="96" />
<glyph unicode="&#x2010;" horiz-adv-x="913" d="M110 456l28 125h663l-25 -125h-666z" />
<glyph unicode="&#x2011;" horiz-adv-x="913" d="M110 456l28 125h663l-25 -125h-666z" />
<glyph unicode="&#x2012;" horiz-adv-x="913" d="M110 456l28 125h663l-25 -125h-666z" />
<glyph unicode="&#x2013;" horiz-adv-x="913" d="M776 435h-666l28 126h663z" />
<glyph unicode="&#x2014;" horiz-adv-x="1246" d="M1108 435h-998l28 126h996z" />
<glyph unicode="&#x2018;" horiz-adv-x="581" d="M364 829h-292l312 500h84z" />
<glyph unicode="&#x2019;" horiz-adv-x="581" d="M220 1329h289l-312 -500h-84z" />
<glyph unicode="&#x201a;" horiz-adv-x="581" d="M220 333h289l-312 -499h-84z" />
<glyph unicode="&#x201c;" horiz-adv-x="954" d="M737 829h-292l313 500h84zM364 829h-292l312 500h84z" />
<glyph unicode="&#x201d;" horiz-adv-x="954" d="M220 1329h289l-312 -500h-84zM594 1329h289l-312 -500h-85z" />
<glyph unicode="&#x201e;" horiz-adv-x="954" d="M220 333h289l-312 -499h-84zM594 333h289l-312 -499h-85z" />
<glyph unicode="&#x2022;" horiz-adv-x="680" d="M387 717q77 0 125.5 -48.5t48.5 -123.5q0 -102 -82 -181.5t-185 -79.5q-77 0 -125.5 48.5t-48.5 123.5q0 102 82.5 181.5t184.5 79.5z" />
<glyph unicode="&#x2026;" horiz-adv-x="1576" d="M325 333q61 0 98.5 -37t37.5 -96q0 -77 -64 -138.5t-141 -61.5q-59 0 -97.5 37t-38.5 94q0 79 64 140.5t141 61.5zM824 333q59 0 97.5 -37t38.5 -96q0 -77 -64 -138.5t-143 -61.5q-59 0 -96 37t-37 94q0 79 62.5 140.5t141.5 61.5zM1324 333q59 0 96 -37t37 -96 q0 -77 -63 -138.5t-142 -61.5q-59 0 -96 37t-37 94q0 79 63 140.5t142 61.5z" />
<glyph unicode="&#x202f;" horiz-adv-x="348" />
<glyph unicode="&#x2039;" horiz-adv-x="788" d="M704 709l-353 -192l274 -189l-31 -146l-469 335l612 338z" />
<glyph unicode="&#x203a;" horiz-adv-x="788" d="M197 855l469 -338l-612 -335l30 146l354 189l-272 192z" />
<glyph unicode="&#x205f;" horiz-adv-x="435" />
<glyph unicode="&#x2122;" horiz-adv-x="1722" d="M632 1329q61 -5 49 -62l-13 -64h-166l-115 -537h-167l115 537h-105q-61 5 -48 64l13 62h437zM1533 788h21l-13 -61q-13 -59 -74 -61h-85q-82 5 -64 82l80 373q15 77 -67 82q-26 0 -43 -10q-46 -20 -57 -72l-97 -455h-166l97 455q15 77 -67 82q-23 0 -43 -10 q-46 -20 -56 -72l-98 -455h-166l141 663h166l-36 -167q33 154 202 167q136 -8 136 -123q0 -20 -5 -44q33 154 202 167q136 -8 136 -123q0 -20 -5 -44l-90 -414q-3 -20 18 -21q10 0 26 21z" />
</font>
</defs>
</svg>
